ISO-10303-21;
HEADER;
FILE_DESCRIPTION(('Open CASCADE Model'),'2;1');
FILE_NAME('Open CASCADE Shape Model','2026-09-06T16:09:34',('Author'),(
    'Open CASCADE'),'Open CASCADE STEP processor 7.9','build123d',
  'Unknown');
FILE_SCHEMA(('AUTOMOTIVE_DESIGN { 1 0 10303 214 1 1 1 1 }'));
ENDSEC;
DATA;
#1 = APPLICATION_PROTOCOL_DEFINITION('international standard',
  'automotive_design',2000,#2);
#2 = APPLICATION_CONTEXT(
  'core data for automotive mechanical design processes');
#3 = SHAPE_DEFINITION_REPRESENTATION(#4,#10);
#4 = PRODUCT_DEFINITION_SHAPE('','',#5);
#5 = PRODUCT_DEFINITION('design','',#6,#9);
#6 = PRODUCT_DEFINITION_FORMATION('','',#7);
#7 = PRODUCT('SOLID','SOLID','',(#8));
#8 = PRODUCT_CONTEXT('',#2,'mechanical');
#9 = PRODUCT_DEFINITION_CONTEXT('part definition',#2,'design');
#10 = ADVANCED_BREP_SHAPE_REPRESENTATION('',(#11,#15),#1505);
#11 = AXIS2_PLACEMENT_3D('',#12,#13,#14);
#12 = CARTESIAN_POINT('',(0.,0.,0.));
#13 = DIRECTION('',(0.,0.,1.));
#14 = DIRECTION('',(1.,0.,-0.));
#15 = MANIFOLD_SOLID_BREP('',#16);
#16 = CLOSED_SHELL('',(#17,#495,#669,#704,#918,#1132,#1208,#1257,#1306,
    #1355,#1404,#1431,#1492,#1501));
#17 = ADVANCED_FACE('',(#18,#105,#300),#32,.T.);
#18 = FACE_BOUND('',#19,.F.);
#19 = EDGE_LOOP('',(#20,#50,#77,#78));
#20 = ORIENTED_EDGE('',*,*,#21,.T.);
#21 = EDGE_CURVE('',#22,#24,#26,.T.);
#22 = VERTEX_POINT('',#23);
#23 = CARTESIAN_POINT('',(21.1,0.,70.));
#24 = VERTEX_POINT('',#25);
#25 = CARTESIAN_POINT('',(21.1,0.,0.));
#26 = SEAM_CURVE('',#27,(#31,#43),.PCURVE_S1.);
#27 = LINE('',#28,#29);
#28 = CARTESIAN_POINT('',(21.1,0.,70.));
#29 = VECTOR('',#30,1.);
#30 = DIRECTION('',(0.,0.,-1.));
#31 = PCURVE('',#32,#37);
#32 = CYLINDRICAL_SURFACE('',#33,21.1);
#33 = AXIS2_PLACEMENT_3D('',#34,#35,#36);
#34 = CARTESIAN_POINT('',(0.,0.,0.));
#35 = DIRECTION('',(-0.,-0.,-1.));
#36 = DIRECTION('',(1.,0.,-0.));
#37 = DEFINITIONAL_REPRESENTATION('',(#38),#42);
#38 = LINE('',#39,#40);
#39 = CARTESIAN_POINT('',(-6.28318530718,-70.));
#40 = VECTOR('',#41,1.);
#41 = DIRECTION('',(0.,1.));
#42 = ( GEOMETRIC_REPRESENTATION_CONTEXT(2) 
PARAMETRIC_REPRESENTATION_CONTEXT() REPRESENTATION_CONTEXT('2D SPACE',''
  ) );
#43 = PCURVE('',#32,#44);
#44 = DEFINITIONAL_REPRESENTATION('',(#45),#49);
#45 = LINE('',#46,#47);
#46 = CARTESIAN_POINT('',(-0.,-70.));
#47 = VECTOR('',#48,1.);
#48 = DIRECTION('',(0.,1.));
#49 = ( GEOMETRIC_REPRESENTATION_CONTEXT(2) 
PARAMETRIC_REPRESENTATION_CONTEXT() REPRESENTATION_CONTEXT('2D SPACE',''
  ) );
#50 = ORIENTED_EDGE('',*,*,#51,.F.);
#51 = EDGE_CURVE('',#24,#24,#52,.T.);
#52 = SURFACE_CURVE('',#53,(#58,#65),.PCURVE_S1.);
#53 = CIRCLE('',#54,21.1);
#54 = AXIS2_PLACEMENT_3D('',#55,#56,#57);
#55 = CARTESIAN_POINT('',(0.,0.,0.));
#56 = DIRECTION('',(0.,0.,1.));
#57 = DIRECTION('',(1.,0.,-0.));
#58 = PCURVE('',#32,#59);
#59 = DEFINITIONAL_REPRESENTATION('',(#60),#64);
#60 = LINE('',#61,#62);
#61 = CARTESIAN_POINT('',(-0.,0.));
#62 = VECTOR('',#63,1.);
#63 = DIRECTION('',(-1.,0.));
#64 = ( GEOMETRIC_REPRESENTATION_CONTEXT(2) 
PARAMETRIC_REPRESENTATION_CONTEXT() REPRESENTATION_CONTEXT('2D SPACE',''
  ) );
#65 = PCURVE('',#66,#71);
#66 = PLANE('',#67);
#67 = AXIS2_PLACEMENT_3D('',#68,#69,#70);
#68 = CARTESIAN_POINT('',(0.,2.249429367154E-15,0.));
#69 = DIRECTION('',(0.,0.,1.));
#70 = DIRECTION('',(1.,0.,-0.));
#71 = DEFINITIONAL_REPRESENTATION('',(#72),#76);
#72 = CIRCLE('',#73,21.1);
#73 = AXIS2_PLACEMENT_2D('',#74,#75);
#74 = CARTESIAN_POINT('',(0.,-2.249429367154E-15));
#75 = DIRECTION('',(1.,0.));
#76 = ( GEOMETRIC_REPRESENTATION_CONTEXT(2) 
PARAMETRIC_REPRESENTATION_CONTEXT() REPRESENTATION_CONTEXT('2D SPACE',''
  ) );
#77 = ORIENTED_EDGE('',*,*,#21,.F.);
#78 = ORIENTED_EDGE('',*,*,#79,.T.);
#79 = EDGE_CURVE('',#22,#22,#80,.T.);
#80 = SURFACE_CURVE('',#81,(#86,#93),.PCURVE_S1.);
#81 = CIRCLE('',#82,21.1);
#82 = AXIS2_PLACEMENT_3D('',#83,#84,#85);
#83 = CARTESIAN_POINT('',(0.,0.,70.));
#84 = DIRECTION('',(0.,0.,1.));
#85 = DIRECTION('',(1.,0.,-0.));
#86 = PCURVE('',#32,#87);
#87 = DEFINITIONAL_REPRESENTATION('',(#88),#92);
#88 = LINE('',#89,#90);
#89 = CARTESIAN_POINT('',(-0.,-70.));
#90 = VECTOR('',#91,1.);
#91 = DIRECTION('',(-1.,0.));
#92 = ( GEOMETRIC_REPRESENTATION_CONTEXT(2) 
PARAMETRIC_REPRESENTATION_CONTEXT() REPRESENTATION_CONTEXT('2D SPACE',''
  ) );
#93 = PCURVE('',#94,#99);
#94 = PLANE('',#95);
#95 = AXIS2_PLACEMENT_3D('',#96,#97,#98);
#96 = CARTESIAN_POINT('',(0.,2.249429367154E-15,70.));
#97 = DIRECTION('',(0.,0.,1.));
#98 = DIRECTION('',(1.,0.,-0.));
#99 = DEFINITIONAL_REPRESENTATION('',(#100),#104);
#100 = CIRCLE('',#101,21.1);
#101 = AXIS2_PLACEMENT_2D('',#102,#103);
#102 = CARTESIAN_POINT('',(0.,-2.249429367154E-15));
#103 = DIRECTION('',(1.,0.));
#104 = ( GEOMETRIC_REPRESENTATION_CONTEXT(2) 
PARAMETRIC_REPRESENTATION_CONTEXT() REPRESENTATION_CONTEXT('2D SPACE',''
  ) );
#105 = FACE_BOUND('',#106,.F.);
#106 = EDGE_LOOP('',(#107));
#107 = ORIENTED_EDGE('',*,*,#108,.F.);
#108 = EDGE_CURVE('',#109,#109,#111,.T.);
#109 = VERTEX_POINT('',#110);
#110 = CARTESIAN_POINT('',(4.15,20.687858758219,30.));
#111 = SURFACE_CURVE('',#112,(#171,#233),.PCURVE_S1.);
#112 = B_SPLINE_CURVE_WITH_KNOTS('',8,(#113,#114,#115,#116,#117,#118,
    #119,#120,#121,#122,#123,#124,#125,#126,#127,#128,#129,#130,#131,
    #132,#133,#134,#135,#136,#137,#138,#139,#140,#141,#142,#143,#144,
    #145,#146,#147,#148,#149,#150,#151,#152,#153,#154,#155,#156,#157,
    #158,#159,#160,#161,#162,#163,#164,#165,#166,#167,#168,#169,#170),
  .UNSPECIFIED.,.T.,.F.,(9,7,7,7,7,7,7,7,9),(0.,0.174421813848,
    0.247065032534,0.324726934712,0.499498474927,0.67426893105,
    0.74705735197,0.824874487932,1.),.UNSPECIFIED.);
#113 = CARTESIAN_POINT('',(4.15,20.687858758219,30.));
#114 = CARTESIAN_POINT('',(4.15,20.687858758219,30.49414266567));
#115 = CARTESIAN_POINT('',(4.082757476953,20.701348333123,30.9863841712)
  );
#116 = CARTESIAN_POINT('',(3.949171553188,20.728141847924,
    31.472715511051));
#117 = CARTESIAN_POINT('',(3.747126168958,20.767410669597,
    31.948392829046));
#118 = CARTESIAN_POINT('',(3.472555980731,20.817457727184,
    32.406437506737));
#119 = CARTESIAN_POINT('',(3.120396705593,20.875184147662,
    32.836226306867));
#120 = CARTESIAN_POINT('',(2.685337109456,20.934960602059,
    33.222332921702));
#121 = CARTESIAN_POINT('',(1.948317930208,21.010985616914,
    33.673020101212));
#122 = CARTESIAN_POINT('',(1.715257140715,21.032441524354,
    33.794710425181));
#123 = CARTESIAN_POINT('',(1.467271973795,21.052182950297,
    33.902314775991));
#124 = CARTESIAN_POINT('',(1.206204476894,21.069372333896,
    33.993059673795));
#125 = CARTESIAN_POINT('',(0.934241822747,21.083245083061,
    34.064661341817));
#126 = CARTESIAN_POINT('',(0.65384728092,21.093184407036,34.115330791355
    ));
#127 = CARTESIAN_POINT('',(0.367684503943,21.098777609744,34.14378394943
    ));
#128 = CARTESIAN_POINT('',(-0.230590636912,21.101004431557,
    34.155107812167));
#129 = CARTESIAN_POINT('',(-0.5381383205,21.096973157342,34.134599201825
    ));
#130 = CARTESIAN_POINT('',(-0.840547127536,21.087840701435,
    34.088282122114));
#131 = CARTESIAN_POINT('',(-1.134359114884,21.074012955187,
    34.017462762907));
#132 = CARTESIAN_POINT('',(-1.416347761765,21.056202978281,
    33.924174650862));
#133 = CARTESIAN_POINT('',(-1.6836383758,21.035346137224,33.811164614154
    ));
#134 = CARTESIAN_POINT('',(-1.933816409653,21.012481478008,
    33.681887780075));
#135 = CARTESIAN_POINT('',(-2.685323349181,20.934962021459,
    33.222341336109));
#136 = CARTESIAN_POINT('',(-3.120395232729,20.875185079003,
    32.836233547391));
#137 = CARTESIAN_POINT('',(-3.472561811233,20.817456707792,
    32.406433638421));
#138 = CARTESIAN_POINT('',(-3.747132655336,20.767409433563,
    31.948382461412));
#139 = CARTESIAN_POINT('',(-3.949174522643,20.728141218693,
    31.472703433963));
#140 = CARTESIAN_POINT('',(-4.082756630934,20.701348508737,
    30.986378969088));
#141 = CARTESIAN_POINT('',(-4.15,20.687858758219,30.494145728559));
#142 = CARTESIAN_POINT('',(-4.15,20.687858758219,29.505857336578));
#143 = CARTESIAN_POINT('',(-4.082757474589,20.701348333423,
    29.013615818807));
#144 = CARTESIAN_POINT('',(-3.949171562416,20.728141846774,
    28.52728451009));
#145 = CARTESIAN_POINT('',(-3.747126152518,20.767410671588,
    28.051607145046));
#146 = CARTESIAN_POINT('',(-3.472555997108,20.817457725278,
    27.593562512328));
#147 = CARTESIAN_POINT('',(-3.120396696387,20.875184148679,
    27.163773685156));
#148 = CARTESIAN_POINT('',(-2.685337111918,20.934960601805,
    26.777667079803));
#149 = CARTESIAN_POINT('',(-1.948317930208,21.010985616914,
    26.326979898788));
#150 = CARTESIAN_POINT('',(-1.715257140715,21.032441524354,
    26.205289574819));
#151 = CARTESIAN_POINT('',(-1.467271973795,21.052182950297,
    26.097685224009));
#152 = CARTESIAN_POINT('',(-1.206204476894,21.069372333896,
    26.006940326205));
#153 = CARTESIAN_POINT('',(-0.934241822747,21.083245083061,
    25.935338658183));
#154 = CARTESIAN_POINT('',(-0.65384728092,21.093184407036,
    25.884669208645));
#155 = CARTESIAN_POINT('',(-0.367684503943,21.098777609744,
    25.85621605057));
#156 = CARTESIAN_POINT('',(0.230590636911,21.101004431557,
    25.844892187833));
#157 = CARTESIAN_POINT('',(0.5381383205,21.096973157342,25.865400798175)
  );
#158 = CARTESIAN_POINT('',(0.840547127537,21.087840701435,
    25.911717877886));
#159 = CARTESIAN_POINT('',(1.134359114884,21.074012955187,
    25.982537237093));
#160 = CARTESIAN_POINT('',(1.416347761765,21.056202978281,
    26.075825349138));
#161 = CARTESIAN_POINT('',(1.6836383758,21.035346137224,26.188835385845)
  );
#162 = CARTESIAN_POINT('',(1.933816409653,21.012481478008,
    26.318112219925));
#163 = CARTESIAN_POINT('',(2.685337109457,20.934960602059,
    26.777667078299));
#164 = CARTESIAN_POINT('',(3.120396705591,20.875184147662,
    27.163773693133));
#165 = CARTESIAN_POINT('',(3.472555980735,20.817457727184,
    27.593562493262));
#166 = CARTESIAN_POINT('',(3.747126168953,20.767410669597,
    28.051607170956));
#167 = CARTESIAN_POINT('',(3.949171553191,20.728141847924,
    28.527284488948));
#168 = CARTESIAN_POINT('',(4.082757476952,20.701348333123,29.0136158288)
  );
#169 = CARTESIAN_POINT('',(4.15,20.687858758219,29.50585733433));
#170 = CARTESIAN_POINT('',(4.15,20.687858758219,30.));
#171 = PCURVE('',#32,#172);
#172 = DEFINITIONAL_REPRESENTATION('',(#173),#232);
#173 = B_SPLINE_CURVE_WITH_KNOTS('',8,(#174,#175,#176,#177,#178,#179,
    #180,#181,#182,#183,#184,#185,#186,#187,#188,#189,#190,#191,#192,
    #193,#194,#195,#196,#197,#198,#199,#200,#201,#202,#203,#204,#205,
    #206,#207,#208,#209,#210,#211,#212,#213,#214,#215,#216,#217,#218,
    #219,#220,#221,#222,#223,#224,#225,#226,#227,#228,#229,#230,#231),
  .UNSPECIFIED.,.T.,.F.,(9,7,7,7,7,7,7,7,9),(0.,0.174421813848,
    0.247065032534,0.324726934712,0.499498474927,0.67426893105,
    0.74705735197,0.824874487932,1.),.UNSPECIFIED.);
#174 = CARTESIAN_POINT('',(-1.372823188706,-30.));
#175 = CARTESIAN_POINT('',(-1.372823188706,-30.49414266567));
#176 = CARTESIAN_POINT('',(-1.376073521274,-30.9863841712));
#177 = CARTESIAN_POINT('',(-1.382530762254,-31.47271551105));
#178 = CARTESIAN_POINT('',(-1.392285194804,-31.94839282904));
#179 = CARTESIAN_POINT('',(-1.405510697399,-32.40643750673));
#180 = CARTESIAN_POINT('',(-1.422416626904,-32.83622630686));
#181 = CARTESIAN_POINT('',(-1.443217413303,-33.2223329217));
#182 = CARTESIAN_POINT('',(-1.478332573057,-33.67302010121));
#183 = CARTESIAN_POINT('',(-1.489424150636,-33.79471042518));
#184 = CARTESIAN_POINT('',(-1.501212640533,-33.90231477599));
#185 = CARTESIAN_POINT('',(-1.513609869244,-33.99305967379));
#186 = CARTESIAN_POINT('',(-1.526512891424,-34.06466134181));
#187 = CARTESIAN_POINT('',(-1.539807304462,-34.11533079135));
#188 = CARTESIAN_POINT('',(-1.553370417403,-34.14378394943));
#189 = CARTESIAN_POINT('',(-1.581724885888,-34.15510781216));
#190 = CARTESIAN_POINT('',(-1.596299795665,-34.13459920182));
#191 = CARTESIAN_POINT('',(-1.610635038787,-34.08828212211));
#192 = CARTESIAN_POINT('',(-1.624571425775,-34.0174627629));
#193 = CARTESIAN_POINT('',(-1.637959362388,-33.92417465086));
#194 = CARTESIAN_POINT('',(-1.650663773388,-33.81116461415));
#195 = CARTESIAN_POINT('',(-1.662569157928,-33.68188778007));
#196 = CARTESIAN_POINT('',(-1.698374584681,-33.2223413361));
#197 = CARTESIAN_POINT('',(-1.719175952609,-32.83623354739));
#198 = CARTESIAN_POINT('',(-1.736082234781,-32.40643363841));
#199 = CARTESIAN_POINT('',(-1.749307772724,-31.94838246141));
#200 = CARTESIAN_POINT('',(-1.759062034807,-31.47270343396));
#201 = CARTESIAN_POINT('',(-1.765519091434,-30.98637896908));
#202 = CARTESIAN_POINT('',(-1.768769464884,-30.49414572855));
#203 = CARTESIAN_POINT('',(-1.768769464884,-29.50585733657));
#204 = CARTESIAN_POINT('',(-1.765519132203,-29.0136158188));
#205 = CARTESIAN_POINT('',(-1.759061891777,-28.52728451009));
#206 = CARTESIAN_POINT('',(-1.749307458001,-28.05160714504));
#207 = CARTESIAN_POINT('',(-1.736081956972,-27.59356251232));
#208 = CARTESIAN_POINT('',(-1.719176026247,-27.16377368515));
#209 = CARTESIAN_POINT('',(-1.698375240404,-26.7776670798));
#210 = CARTESIAN_POINT('',(-1.663260080533,-26.32697989878));
#211 = CARTESIAN_POINT('',(-1.652168502954,-26.20528957481));
#212 = CARTESIAN_POINT('',(-1.640380013057,-26.097685224));
#213 = CARTESIAN_POINT('',(-1.627982784346,-26.0069403262));
#214 = CARTESIAN_POINT('',(-1.615079762165,-25.93533865818));
#215 = CARTESIAN_POINT('',(-1.601785349128,-25.88466920864));
#216 = CARTESIAN_POINT('',(-1.588222236187,-25.85621605057));
#217 = CARTESIAN_POINT('',(-1.559867767702,-25.84489218783));
#218 = CARTESIAN_POINT('',(-1.545292857925,-25.86540079817));
#219 = CARTESIAN_POINT('',(-1.530957614803,-25.91171787788));
#220 = CARTESIAN_POINT('',(-1.517021227815,-25.98253723709));
#221 = CARTESIAN_POINT('',(-1.503633291202,-26.07582534913));
#222 = CARTESIAN_POINT('',(-1.490928880202,-26.18883538584));
#223 = CARTESIAN_POINT('',(-1.479023495661,-26.31811221992));
#224 = CARTESIAN_POINT('',(-1.443217413303,-26.77766707829));
#225 = CARTESIAN_POINT('',(-1.422416626904,-27.16377369313));
#226 = CARTESIAN_POINT('',(-1.405510697399,-27.59356249326));
#227 = CARTESIAN_POINT('',(-1.392285194804,-28.05160717095));
#228 = CARTESIAN_POINT('',(-1.382530762254,-28.52728448894));
#229 = CARTESIAN_POINT('',(-1.376073521274,-29.0136158288));
#230 = CARTESIAN_POINT('',(-1.372823188706,-29.50585733433));
#231 = CARTESIAN_POINT('',(-1.372823188706,-30.));
#232 = ( GEOMETRIC_REPRESENTATION_CONTEXT(2) 
PARAMETRIC_REPRESENTATION_CONTEXT() REPRESENTATION_CONTEXT('2D SPACE',''
  ) );
#233 = PCURVE('',#234,#239);
#234 = CYLINDRICAL_SURFACE('',#235,4.15);
#235 = AXIS2_PLACEMENT_3D('',#236,#237,#238);
#236 = CARTESIAN_POINT('',(0.,60.,30.));
#237 = DIRECTION('',(0.,1.,-2.22044604925E-16));
#238 = DIRECTION('',(1.,0.,0.));
#239 = DEFINITIONAL_REPRESENTATION('',(#240),#299);
#240 = B_SPLINE_CURVE_WITH_KNOTS('',8,(#241,#242,#243,#244,#245,#246,
    #247,#248,#249,#250,#251,#252,#253,#254,#255,#256,#257,#258,#259,
    #260,#261,#262,#263,#264,#265,#266,#267,#268,#269,#270,#271,#272,
    #273,#274,#275,#276,#277,#278,#279,#280,#281,#282,#283,#284,#285,
    #286,#287,#288,#289,#290,#291,#292,#293,#294,#295,#296,#297,#298),
  .UNSPECIFIED.,.F.,.F.,(9,7,7,7,7,7,7,7,9),(0.,0.174421813848,
    0.247065032534,0.324726934712,0.499498474927,0.67426893105,
    0.74705735197,0.824874487932,1.),.UNSPECIFIED.);
#241 = CARTESIAN_POINT('',(0.,-39.31214124178));
#242 = CARTESIAN_POINT('',(-0.119070521848,-39.31214124178));
#243 = CARTESIAN_POINT('',(-0.237683494557,-39.29865166687));
#244 = CARTESIAN_POINT('',(-0.357440979876,-39.27185815207));
#245 = CARTESIAN_POINT('',(-0.47970558396,-39.2325893304));
#246 = CARTESIAN_POINT('',(-0.605772744173,-39.18254227281));
#247 = CARTESIAN_POINT('',(-0.737027705712,-39.12481585233));
#248 = CARTESIAN_POINT('',(-0.875002619599,-39.06503939794));
#249 = CARTESIAN_POINT('',(-1.083170317269,-38.98901438308));
#250 = CARTESIAN_POINT('',(-1.146379202295,-38.96755847564));
#251 = CARTESIAN_POINT('',(-1.211234854615,-38.9478170497));
#252 = CARTESIAN_POINT('',(-1.277455432911,-38.9306276661));
#253 = CARTESIAN_POINT('',(-1.344812079409,-38.91675491693));
#254 = CARTESIAN_POINT('',(-1.413111795248,-38.90681559296));
#255 = CARTESIAN_POINT('',(-1.482184042071,-38.90122239025));
#256 = CARTESIAN_POINT('',(-1.626372547507,-38.89899556844));
#257 = CARTESIAN_POINT('',(-1.7003735987,-38.90302684265));
#258 = CARTESIAN_POINT('',(-1.773649188723,-38.91215929856));
#259 = CARTESIAN_POINT('',(-1.845966253441,-38.92598704481));
#260 = CARTESIAN_POINT('',(-1.917066260521,-38.94379702171));
#261 = CARTESIAN_POINT('',(-1.98664495608,-38.96465386277));
#262 = CARTESIAN_POINT('',(-2.054326448138,-38.98751852199));
#263 = CARTESIAN_POINT('',(-2.266586147464,-39.06503797854));
#264 = CARTESIAN_POINT('',(-2.404563726193,-39.12481492099));
#265 = CARTESIAN_POINT('',(-2.535821259343,-39.1825432922));
#266 = CARTESIAN_POINT('',(-2.661889956126,-39.23259056643));
#267 = CARTESIAN_POINT('',(-2.784154499842,-39.2718587813));
#268 = CARTESIAN_POINT('',(-2.903910421049,-39.29865149126));
#269 = CARTESIAN_POINT('',(-3.022521393696,-39.31214124178));
#270 = CARTESIAN_POINT('',(-3.260663174896,-39.31214124178));
#271 = CARTESIAN_POINT('',(-3.379276150814,-39.29865166657));
#272 = CARTESIAN_POINT('',(-3.499033627334,-39.27185815322));
#273 = CARTESIAN_POINT('',(-3.62129824571,-39.23258932841));
#274 = CARTESIAN_POINT('',(-3.747365391176,-39.18254227472));
#275 = CARTESIAN_POINT('',(-3.8786203624,-39.12481585132));
#276 = CARTESIAN_POINT('',(-4.016595272494,-39.06503939819));
#277 = CARTESIAN_POINT('',(-4.224762970859,-38.98901438308));
#278 = CARTESIAN_POINT('',(-4.287971855885,-38.96755847564));
#279 = CARTESIAN_POINT('',(-4.352827508205,-38.9478170497));
#280 = CARTESIAN_POINT('',(-4.4190480865,-38.9306276661));
#281 = CARTESIAN_POINT('',(-4.486404732999,-38.91675491693));
#282 = CARTESIAN_POINT('',(-4.554704448838,-38.90681559296));
#283 = CARTESIAN_POINT('',(-4.62377669566,-38.90122239025));
#284 = CARTESIAN_POINT('',(-4.767965201096,-38.89899556844));
#285 = CARTESIAN_POINT('',(-4.84196625229,-38.90302684265));
#286 = CARTESIAN_POINT('',(-4.915241842313,-38.91215929856));
#287 = CARTESIAN_POINT('',(-4.98755890703,-38.92598704481));
#288 = CARTESIAN_POINT('',(-5.058658914111,-38.94379702171));
#289 = CARTESIAN_POINT('',(-5.12823760967,-38.96465386277));
#290 = CARTESIAN_POINT('',(-5.195919101728,-38.98751852199));
#291 = CARTESIAN_POINT('',(-5.40818268758,-39.06503939794));
#292 = CARTESIAN_POINT('',(-5.546157601467,-39.12481585233));
#293 = CARTESIAN_POINT('',(-5.677412563007,-39.18254227281));
#294 = CARTESIAN_POINT('',(-5.803479723219,-39.2325893304));
#295 = CARTESIAN_POINT('',(-5.925744327303,-39.27185815207));
#296 = CARTESIAN_POINT('',(-6.045501812623,-39.29865166687));
#297 = CARTESIAN_POINT('',(-6.164114785331,-39.31214124178));
#298 = CARTESIAN_POINT('',(-6.28318530718,-39.31214124178));
#299 = ( GEOMETRIC_REPRESENTATION_CONTEXT(2) 
PARAMETRIC_REPRESENTATION_CONTEXT() REPRESENTATION_CONTEXT('2D SPACE',''
  ) );
#300 = FACE_BOUND('',#301,.F.);
#301 = EDGE_LOOP('',(#302));
#302 = ORIENTED_EDGE('',*,*,#303,.T.);
#303 = EDGE_CURVE('',#304,#304,#306,.T.);
#304 = VERTEX_POINT('',#305);
#305 = CARTESIAN_POINT('',(4.15,-20.68785875821,30.));
#306 = SURFACE_CURVE('',#307,(#366,#428),.PCURVE_S1.);
#307 = B_SPLINE_CURVE_WITH_KNOTS('',8,(#308,#309,#310,#311,#312,#313,
    #314,#315,#316,#317,#318,#319,#320,#321,#322,#323,#324,#325,#326,
    #327,#328,#329,#330,#331,#332,#333,#334,#335,#336,#337,#338,#339,
    #340,#341,#342,#343,#344,#345,#346,#347,#348,#349,#350,#351,#352,
    #353,#354,#355,#356,#357,#358,#359,#360,#361,#362,#363,#364,#365),
  .UNSPECIFIED.,.T.,.F.,(9,7,7,7,7,7,7,7,9),(0.,0.174421810184,
    0.247065027303,0.324726928746,0.499498468767,0.674268924698,
    0.747057345842,0.824874482984,1.),.UNSPECIFIED.);
#308 = CARTESIAN_POINT('',(4.15,-20.68785875821,30.));
#309 = CARTESIAN_POINT('',(4.15,-20.68785875821,30.494142663423));
#310 = CARTESIAN_POINT('',(4.082757474588,-20.70134833342,30.98638418119
    ));
#311 = CARTESIAN_POINT('',(3.949171562419,-20.72814184677,
    31.472715489913));
#312 = CARTESIAN_POINT('',(3.74712615251,-20.76741067158,31.948392854955
    ));
#313 = CARTESIAN_POINT('',(3.472555997116,-20.81745772527,
    32.406437487669));
#314 = CARTESIAN_POINT('',(3.120396696383,-20.87518414867,
    32.836226314847));
#315 = CARTESIAN_POINT('',(2.685337111919,-20.9349606018,33.222332920196
    ));
#316 = CARTESIAN_POINT('',(1.948317929303,-21.010985617,33.673020101765)
  );
#317 = CARTESIAN_POINT('',(1.715257142495,-21.03244152424,
    33.794710424543));
#318 = CARTESIAN_POINT('',(1.467271973657,-21.05218295025,
    33.902314775754));
#319 = CARTESIAN_POINT('',(1.206204475159,-21.06937233398,
    33.993059674276));
#320 = CARTESIAN_POINT('',(0.934241822861,-21.0832450831,34.064661342062
    ));
#321 = CARTESIAN_POINT('',(0.653847282833,-21.09318440696,
    34.115330790971));
#322 = CARTESIAN_POINT('',(0.367684502761,-21.09877760974,
    34.143783949452));
#323 = CARTESIAN_POINT('',(-0.230590639386,-21.10100443156,
    34.155107812214));
#324 = CARTESIAN_POINT('',(-0.538138316098,-21.09697315727,
    34.134599201407));
#325 = CARTESIAN_POINT('',(-0.840547128087,-21.08784070164,
    34.088282123344));
#326 = CARTESIAN_POINT('',(-1.134359118411,-21.07401295502,
    34.01746276198));
#327 = CARTESIAN_POINT('',(-1.416347761215,-21.05620297807,
    33.924174649625));
#328 = CARTESIAN_POINT('',(-1.683638372647,-21.03534613763,
    33.811164616549));
#329 = CARTESIAN_POINT('',(-1.933816411588,-21.0124814778,
    33.681887778892));
#330 = CARTESIAN_POINT('',(-2.685323349181,-20.93496202145,
    33.222341336109));
#331 = CARTESIAN_POINT('',(-3.120395232729,-20.875185079,32.836233547391
    ));
#332 = CARTESIAN_POINT('',(-3.472561811233,-20.81745670779,
    32.406433638421));
#333 = CARTESIAN_POINT('',(-3.747132655335,-20.76740943356,
    31.94838246141));
#334 = CARTESIAN_POINT('',(-3.949174522643,-20.72814121869,
    31.472703433966));
#335 = CARTESIAN_POINT('',(-4.082756630934,-20.70134850873,
    30.986378969086));
#336 = CARTESIAN_POINT('',(-4.15,-20.68785875821,30.494145728559));
#337 = CARTESIAN_POINT('',(-4.15,-20.68785875821,29.505857336579));
#338 = CARTESIAN_POINT('',(-4.082757474589,-20.70134833342,
    29.013615818803));
#339 = CARTESIAN_POINT('',(-3.949171562415,-20.72814184677,
    28.527284510095));
#340 = CARTESIAN_POINT('',(-3.74712615252,-20.76741067158,
    28.051607145041));
#341 = CARTESIAN_POINT('',(-3.472555997105,-20.81745772527,
    27.593562512329));
#342 = CARTESIAN_POINT('',(-3.120396696389,-20.87518414867,
    27.163773685157));
#343 = CARTESIAN_POINT('',(-2.685337111917,-20.9349606018,
    26.777667079803));
#344 = CARTESIAN_POINT('',(-1.948317929303,-21.010985617,26.326979898235
    ));
#345 = CARTESIAN_POINT('',(-1.715257142495,-21.03244152424,
    26.205289575458));
#346 = CARTESIAN_POINT('',(-1.467271973657,-21.05218295025,
    26.097685224246));
#347 = CARTESIAN_POINT('',(-1.206204475159,-21.06937233398,
    26.006940325724));
#348 = CARTESIAN_POINT('',(-0.934241822861,-21.0832450831,
    25.935338657938));
#349 = CARTESIAN_POINT('',(-0.653847282833,-21.09318440696,
    25.884669209029));
#350 = CARTESIAN_POINT('',(-0.367684502761,-21.09877760974,
    25.856216050548));
#351 = CARTESIAN_POINT('',(0.230590639386,-21.10100443156,
    25.844892187786));
#352 = CARTESIAN_POINT('',(0.538138316099,-21.09697315727,
    25.865400798593));
#353 = CARTESIAN_POINT('',(0.840547128086,-21.08784070164,
    25.911717876656));
#354 = CARTESIAN_POINT('',(1.134359118411,-21.07401295502,25.98253723802
    ));
#355 = CARTESIAN_POINT('',(1.416347761217,-21.05620297807,
    26.075825350375));
#356 = CARTESIAN_POINT('',(1.683638372647,-21.03534613763,
    26.188835383451));
#357 = CARTESIAN_POINT('',(1.933816411588,-21.0124814778,26.318112221108
    ));
#358 = CARTESIAN_POINT('',(2.685337111915,-20.9349606018,26.777667079802
    ));
#359 = CARTESIAN_POINT('',(3.120396696395,-20.87518414867,27.16377368516
    ));
#360 = CARTESIAN_POINT('',(3.472555997096,-20.81745772527,
    27.593562512325));
#361 = CARTESIAN_POINT('',(3.747126152528,-20.76741067158,
    28.051607145041));
#362 = CARTESIAN_POINT('',(3.94917156241,-20.72814184677,28.527284510099
    ));
#363 = CARTESIAN_POINT('',(4.08275747459,-20.70134833342,29.0136158188)
  );
#364 = CARTESIAN_POINT('',(4.15,-20.68785875821,29.50585733658));
#365 = CARTESIAN_POINT('',(4.15,-20.68785875821,30.));
#366 = PCURVE('',#32,#367);
#367 = DEFINITIONAL_REPRESENTATION('',(#368),#427);
#368 = B_SPLINE_CURVE_WITH_KNOTS('',8,(#369,#370,#371,#372,#373,#374,
    #375,#376,#377,#378,#379,#380,#381,#382,#383,#384,#385,#386,#387,
    #388,#389,#390,#391,#392,#393,#394,#395,#396,#397,#398,#399,#400,
    #401,#402,#403,#404,#405,#406,#407,#408,#409,#410,#411,#412,#413,
    #414,#415,#416,#417,#418,#419,#420,#421,#422,#423,#424,#425,#426),
  .UNSPECIFIED.,.T.,.F.,(9,7,7,7,7,7,7,7,9),(0.,0.174421810184,
    0.247065027303,0.324726928746,0.499498468767,0.674268924698,
    0.747057345842,0.824874482984,1.),.UNSPECIFIED.);
#369 = CARTESIAN_POINT('',(-4.910362118474,-30.));
#370 = CARTESIAN_POINT('',(-4.910362118474,-30.49414266342));
#371 = CARTESIAN_POINT('',(-4.907111785792,-30.98638418119));
#372 = CARTESIAN_POINT('',(-4.900654545367,-31.47271548991));
#373 = CARTESIAN_POINT('',(-4.89090011159,-31.94839285495));
#374 = CARTESIAN_POINT('',(-4.877674610562,-32.40643748766));
#375 = CARTESIAN_POINT('',(-4.860768679836,-32.83622631484));
#376 = CARTESIAN_POINT('',(-4.839967893994,-33.22233292019));
#377 = CARTESIAN_POINT('',(-4.80485273408,-33.67302010176));
#378 = CARTESIAN_POINT('',(-4.793761156628,-33.79471042454));
#379 = CARTESIAN_POINT('',(-4.781972666641,-33.90231477575));
#380 = CARTESIAN_POINT('',(-4.769575437853,-33.99305967427));
#381 = CARTESIAN_POINT('',(-4.756672415761,-34.06466134206));
#382 = CARTESIAN_POINT('',(-4.743378002808,-34.11533079097));
#383 = CARTESIAN_POINT('',(-4.729814889721,-34.14378394945));
#384 = CARTESIAN_POINT('',(-4.701460421175,-34.15510781221));
#385 = CARTESIAN_POINT('',(-4.686885511723,-34.1345992014));
#386 = CARTESIAN_POINT('',(-4.672550268367,-34.08828212334));
#387 = CARTESIAN_POINT('',(-4.658613881237,-34.01746276198));
#388 = CARTESIAN_POINT('',(-4.645225944817,-33.92417464962));
#389 = CARTESIAN_POINT('',(-4.632521533942,-33.81116461654));
#390 = CARTESIAN_POINT('',(-4.620616149159,-33.68188777889));
#391 = CARTESIAN_POINT('',(-4.584810722498,-33.2223413361));
#392 = CARTESIAN_POINT('',(-4.564009354571,-32.83623354739));
#393 = CARTESIAN_POINT('',(-4.547103072399,-32.40643363842));
#394 = CARTESIAN_POINT('',(-4.533877534456,-31.94838246141));
#395 = CARTESIAN_POINT('',(-4.524123272373,-31.47270343396));
#396 = CARTESIAN_POINT('',(-4.517666215746,-30.98637896908));
#397 = CARTESIAN_POINT('',(-4.514415842296,-30.49414572855));
#398 = CARTESIAN_POINT('',(-4.514415842296,-29.50585733657));
#399 = CARTESIAN_POINT('',(-4.517666174977,-29.0136158188));
#400 = CARTESIAN_POINT('',(-4.524123415403,-28.52728451009));
#401 = CARTESIAN_POINT('',(-4.533877849179,-28.05160714504));
#402 = CARTESIAN_POINT('',(-4.547103350208,-27.59356251232));
#403 = CARTESIAN_POINT('',(-4.564009280933,-27.16377368515));
#404 = CARTESIAN_POINT('',(-4.584810066775,-26.7776670798));
#405 = CARTESIAN_POINT('',(-4.61992522669,-26.32697989823));
#406 = CARTESIAN_POINT('',(-4.631016804141,-26.20528957545));
#407 = CARTESIAN_POINT('',(-4.642805294129,-26.09768522424));
#408 = CARTESIAN_POINT('',(-4.655202522916,-26.00694032572));
#409 = CARTESIAN_POINT('',(-4.668105545009,-25.93533865793));
#410 = CARTESIAN_POINT('',(-4.681399957961,-25.88466920902));
#411 = CARTESIAN_POINT('',(-4.694963071048,-25.85621605054));
#412 = CARTESIAN_POINT('',(-4.723317539595,-25.84489218778));
#413 = CARTESIAN_POINT('',(-4.737892449046,-25.86540079859));
#414 = CARTESIAN_POINT('',(-4.752227692402,-25.91171787665));
#415 = CARTESIAN_POINT('',(-4.766164079532,-25.98253723802));
#416 = CARTESIAN_POINT('',(-4.779552015952,-26.07582535037));
#417 = CARTESIAN_POINT('',(-4.792256426828,-26.18883538345));
#418 = CARTESIAN_POINT('',(-4.80416181161,-26.3181122211));
#419 = CARTESIAN_POINT('',(-4.839967893994,-26.7776670798));
#420 = CARTESIAN_POINT('',(-4.860768679837,-27.16377368515));
#421 = CARTESIAN_POINT('',(-4.877674610561,-27.59356251232));
#422 = CARTESIAN_POINT('',(-4.890900111591,-28.05160714503));
#423 = CARTESIAN_POINT('',(-4.900654545367,-28.5272845101));
#424 = CARTESIAN_POINT('',(-4.907111785793,-29.01361581879));
#425 = CARTESIAN_POINT('',(-4.910362118474,-29.50585733658));
#426 = CARTESIAN_POINT('',(-4.910362118474,-30.));
#427 = ( GEOMETRIC_REPRESENTATION_CONTEXT(2) 
PARAMETRIC_REPRESENTATION_CONTEXT() REPRESENTATION_CONTEXT('2D SPACE',''
  ) );
#428 = PCURVE('',#429,#434);
#429 = CYLINDRICAL_SURFACE('',#430,4.15);
#430 = AXIS2_PLACEMENT_3D('',#431,#432,#433);
#431 = CARTESIAN_POINT('',(0.,60.,30.));
#432 = DIRECTION('',(0.,1.,-2.22044604925E-16));
#433 = DIRECTION('',(1.,0.,0.));
#434 = DEFINITIONAL_REPRESENTATION('',(#435),#494);
#435 = B_SPLINE_CURVE_WITH_KNOTS('',8,(#436,#437,#438,#439,#440,#441,
    #442,#443,#444,#445,#446,#447,#448,#449,#450,#451,#452,#453,#454,
    #455,#456,#457,#458,#459,#460,#461,#462,#463,#464,#465,#466,#467,
    #468,#469,#470,#471,#472,#473,#474,#475,#476,#477,#478,#479,#480,
    #481,#482,#483,#484,#485,#486,#487,#488,#489,#490,#491,#492,#493),
  .UNSPECIFIED.,.F.,.F.,(9,7,7,7,7,7,7,7,9),(0.,0.174421810184,
    0.247065027303,0.324726928746,0.499498468767,0.674268924698,
    0.747057345842,0.824874482984,1.),.UNSPECIFIED.);
#436 = CARTESIAN_POINT('',(0.,-80.68785875821));
#437 = CARTESIAN_POINT('',(-0.119070521307,-80.68785875821));
#438 = CARTESIAN_POINT('',(-0.237683497223,-80.70134833342));
#439 = CARTESIAN_POINT('',(-0.357440973744,-80.72814184677));
#440 = CARTESIAN_POINT('',(-0.479705592121,-80.76741067158));
#441 = CARTESIAN_POINT('',(-0.605772737585,-80.81745772527));
#442 = CARTESIAN_POINT('',(-0.737027708812,-80.87518414867));
#443 = CARTESIAN_POINT('',(-0.875002618904,-80.9349606018));
#444 = CARTESIAN_POINT('',(-1.083170317524,-81.010985617));
#445 = CARTESIAN_POINT('',(-1.146379201827,-81.03244152424));
#446 = CARTESIAN_POINT('',(-1.211234854631,-81.05218295025));
#447 = CARTESIAN_POINT('',(-1.277455433356,-81.06937233398));
#448 = CARTESIAN_POINT('',(-1.344812079398,-81.0832450831));
#449 = CARTESIAN_POINT('',(-1.413111794766,-81.09318440696));
#450 = CARTESIAN_POINT('',(-1.482184042356,-81.09877760974));
#451 = CARTESIAN_POINT('',(-1.626372548103,-81.10100443156));
#452 = CARTESIAN_POINT('',(-1.700373597667,-81.09697315727));
#453 = CARTESIAN_POINT('',(-1.773649188775,-81.08784070164));
#454 = CARTESIAN_POINT('',(-1.845966254348,-81.07401295502));
#455 = CARTESIAN_POINT('',(-1.917066260467,-81.05620297807));
#456 = CARTESIAN_POINT('',(-1.986644955166,-81.03534613763));
#457 = CARTESIAN_POINT('',(-2.054326448685,-81.0124814778));
#458 = CARTESIAN_POINT('',(-2.266586147464,-80.93496202145));
#459 = CARTESIAN_POINT('',(-2.404563726193,-80.875185079));
#460 = CARTESIAN_POINT('',(-2.535821259342,-80.81745670779));
#461 = CARTESIAN_POINT('',(-2.661889956127,-80.76740943356));
#462 = CARTESIAN_POINT('',(-2.784154499841,-80.72814121869));
#463 = CARTESIAN_POINT('',(-2.903910421049,-80.70134850873));
#464 = CARTESIAN_POINT('',(-3.022521393696,-80.68785875821));
#465 = CARTESIAN_POINT('',(-3.260663174896,-80.68785875821));
#466 = CARTESIAN_POINT('',(-3.379276150814,-80.70134833342));
#467 = CARTESIAN_POINT('',(-3.499033627333,-80.72814184677));
#468 = CARTESIAN_POINT('',(-3.62129824571,-80.76741067158));
#469 = CARTESIAN_POINT('',(-3.747365391177,-80.81745772527));
#470 = CARTESIAN_POINT('',(-3.8786203624,-80.87518414867));
#471 = CARTESIAN_POINT('',(-4.016595272494,-80.9349606018));
#472 = CARTESIAN_POINT('',(-4.224762971114,-81.010985617));
#473 = CARTESIAN_POINT('',(-4.287971855417,-81.03244152424));
#474 = CARTESIAN_POINT('',(-4.35282750822,-81.05218295025));
#475 = CARTESIAN_POINT('',(-4.419048086946,-81.06937233398));
#476 = CARTESIAN_POINT('',(-4.486404732988,-81.0832450831));
#477 = CARTESIAN_POINT('',(-4.554704448356,-81.09318440696));
#478 = CARTESIAN_POINT('',(-4.623776695945,-81.09877760974));
#479 = CARTESIAN_POINT('',(-4.767965201693,-81.10100443156));
#480 = CARTESIAN_POINT('',(-4.841966251257,-81.09697315727));
#481 = CARTESIAN_POINT('',(-4.915241842364,-81.08784070164));
#482 = CARTESIAN_POINT('',(-4.987558907937,-81.07401295502));
#483 = CARTESIAN_POINT('',(-5.058658914057,-81.05620297807));
#484 = CARTESIAN_POINT('',(-5.128237608756,-81.03534613763));
#485 = CARTESIAN_POINT('',(-5.195919102275,-81.0124814778));
#486 = CARTESIAN_POINT('',(-5.408182688275,-80.9349606018));
#487 = CARTESIAN_POINT('',(-5.546157598371,-80.87518414867));
#488 = CARTESIAN_POINT('',(-5.67741256959,-80.81745772527));
#489 = CARTESIAN_POINT('',(-5.803479715061,-80.76741067158));
#490 = CARTESIAN_POINT('',(-5.925744333436,-80.72814184677));
#491 = CARTESIAN_POINT('',(-6.045501809955,-80.70134833342));
#492 = CARTESIAN_POINT('',(-6.164114785874,-80.68785875821));
#493 = CARTESIAN_POINT('',(-6.28318530718,-80.68785875821));
#494 = ( GEOMETRIC_REPRESENTATION_CONTEXT(2) 
PARAMETRIC_REPRESENTATION_CONTEXT() REPRESENTATION_CONTEXT('2D SPACE',''
  ) );
#495 = ADVANCED_FACE('',(#496,#499),#94,.T.);
#496 = FACE_BOUND('',#497,.T.);
#497 = EDGE_LOOP('',(#498));
#498 = ORIENTED_EDGE('',*,*,#79,.T.);
#499 = FACE_BOUND('',#500,.T.);
#500 = EDGE_LOOP('',(#501,#531,#559,#587,#615,#643));
#501 = ORIENTED_EDGE('',*,*,#502,.F.);
#502 = EDGE_CURVE('',#503,#505,#507,.T.);
#503 = VERTEX_POINT('',#504);
#504 = CARTESIAN_POINT('',(7.33234845075,0.,70.));
#505 = VERTEX_POINT('',#506);
#506 = CARTESIAN_POINT('',(3.666174225375,6.350000027749,70.));
#507 = SURFACE_CURVE('',#508,(#512,#519),.PCURVE_S1.);
#508 = LINE('',#509,#510);
#509 = CARTESIAN_POINT('',(7.33234845075,0.,70.));
#510 = VECTOR('',#511,1.);
#511 = DIRECTION('',(-0.5,0.866025403784,0.));
#512 = PCURVE('',#94,#513);
#513 = DEFINITIONAL_REPRESENTATION('',(#514),#518);
#514 = LINE('',#515,#516);
#515 = CARTESIAN_POINT('',(7.33234845075,-2.249429367154E-15));
#516 = VECTOR('',#517,1.);
#517 = DIRECTION('',(-0.5,0.866025403784));
#518 = ( GEOMETRIC_REPRESENTATION_CONTEXT(2) 
PARAMETRIC_REPRESENTATION_CONTEXT() REPRESENTATION_CONTEXT('2D SPACE',''
  ) );
#519 = PCURVE('',#520,#525);
#520 = PLANE('',#521);
#521 = AXIS2_PLACEMENT_3D('',#522,#523,#524);
#522 = CARTESIAN_POINT('',(7.33234845075,0.,70.));
#523 = DIRECTION('',(-0.866025403784,-0.5,0.));
#524 = DIRECTION('',(-0.5,0.866025403784,0.));
#525 = DEFINITIONAL_REPRESENTATION('',(#526),#530);
#526 = LINE('',#527,#528);
#527 = CARTESIAN_POINT('',(0.,0.));
#528 = VECTOR('',#529,1.);
#529 = DIRECTION('',(1.,0.));
#530 = ( GEOMETRIC_REPRESENTATION_CONTEXT(2) 
PARAMETRIC_REPRESENTATION_CONTEXT() REPRESENTATION_CONTEXT('2D SPACE',''
  ) );
#531 = ORIENTED_EDGE('',*,*,#532,.F.);
#532 = EDGE_CURVE('',#533,#503,#535,.T.);
#533 = VERTEX_POINT('',#534);
#534 = CARTESIAN_POINT('',(3.666174225375,-6.350000027749,70.));
#535 = SURFACE_CURVE('',#536,(#540,#547),.PCURVE_S1.);
#536 = LINE('',#537,#538);
#537 = CARTESIAN_POINT('',(3.666174225375,-6.350000027749,70.));
#538 = VECTOR('',#539,1.);
#539 = DIRECTION('',(0.5,0.866025403784,0.));
#540 = PCURVE('',#94,#541);
#541 = DEFINITIONAL_REPRESENTATION('',(#542),#546);
#542 = LINE('',#543,#544);
#543 = CARTESIAN_POINT('',(3.666174225375,-6.350000027749));
#544 = VECTOR('',#545,1.);
#545 = DIRECTION('',(0.5,0.866025403784));
#546 = ( GEOMETRIC_REPRESENTATION_CONTEXT(2) 
PARAMETRIC_REPRESENTATION_CONTEXT() REPRESENTATION_CONTEXT('2D SPACE',''
  ) );
#547 = PCURVE('',#548,#553);
#548 = PLANE('',#549);
#549 = AXIS2_PLACEMENT_3D('',#550,#551,#552);
#550 = CARTESIAN_POINT('',(3.666174225375,-6.350000027749,70.));
#551 = DIRECTION('',(-0.866025403784,0.5,0.));
#552 = DIRECTION('',(0.5,0.866025403784,0.));
#553 = DEFINITIONAL_REPRESENTATION('',(#554),#558);
#554 = LINE('',#555,#556);
#555 = CARTESIAN_POINT('',(0.,0.));
#556 = VECTOR('',#557,1.);
#557 = DIRECTION('',(1.,0.));
#558 = ( GEOMETRIC_REPRESENTATION_CONTEXT(2) 
PARAMETRIC_REPRESENTATION_CONTEXT() REPRESENTATION_CONTEXT('2D SPACE',''
  ) );
#559 = ORIENTED_EDGE('',*,*,#560,.F.);
#560 = EDGE_CURVE('',#561,#533,#563,.T.);
#561 = VERTEX_POINT('',#562);
#562 = CARTESIAN_POINT('',(-3.666174225375,-6.350000027749,70.));
#563 = SURFACE_CURVE('',#564,(#568,#575),.PCURVE_S1.);
#564 = LINE('',#565,#566);
#565 = CARTESIAN_POINT('',(-3.666174225375,-6.350000027749,70.));
#566 = VECTOR('',#567,1.);
#567 = DIRECTION('',(1.,-1.211315072744E-16,0.));
#568 = PCURVE('',#94,#569);
#569 = DEFINITIONAL_REPRESENTATION('',(#570),#574);
#570 = LINE('',#571,#572);
#571 = CARTESIAN_POINT('',(-3.666174225375,-6.350000027749));
#572 = VECTOR('',#573,1.);
#573 = DIRECTION('',(1.,-1.211315072744E-16));
#574 = ( GEOMETRIC_REPRESENTATION_CONTEXT(2) 
PARAMETRIC_REPRESENTATION_CONTEXT() REPRESENTATION_CONTEXT('2D SPACE',''
  ) );
#575 = PCURVE('',#576,#581);
#576 = PLANE('',#577);
#577 = AXIS2_PLACEMENT_3D('',#578,#579,#580);
#578 = CARTESIAN_POINT('',(-3.666174225375,-6.350000027749,70.));
#579 = DIRECTION('',(1.211315072744E-16,1.,-0.));
#580 = DIRECTION('',(1.,-1.211315072744E-16,0.));
#581 = DEFINITIONAL_REPRESENTATION('',(#582),#586);
#582 = LINE('',#583,#584);
#583 = CARTESIAN_POINT('',(0.,0.));
#584 = VECTOR('',#585,1.);
#585 = DIRECTION('',(1.,0.));
#586 = ( GEOMETRIC_REPRESENTATION_CONTEXT(2) 
PARAMETRIC_REPRESENTATION_CONTEXT() REPRESENTATION_CONTEXT('2D SPACE',''
  ) );
#587 = ORIENTED_EDGE('',*,*,#588,.F.);
#588 = EDGE_CURVE('',#589,#561,#591,.T.);
#589 = VERTEX_POINT('',#590);
#590 = CARTESIAN_POINT('',(-7.33234845075,8.979537060444E-16,70.));
#591 = SURFACE_CURVE('',#592,(#596,#603),.PCURVE_S1.);
#592 = LINE('',#593,#594);
#593 = CARTESIAN_POINT('',(-7.33234845075,8.979537060444E-16,70.));
#594 = VECTOR('',#595,1.);
#595 = DIRECTION('',(0.5,-0.866025403784,0.));
#596 = PCURVE('',#94,#597);
#597 = DEFINITIONAL_REPRESENTATION('',(#598),#602);
#598 = LINE('',#599,#600);
#599 = CARTESIAN_POINT('',(-7.33234845075,-1.351475661109E-15));
#600 = VECTOR('',#601,1.);
#601 = DIRECTION('',(0.5,-0.866025403784));
#602 = ( GEOMETRIC_REPRESENTATION_CONTEXT(2) 
PARAMETRIC_REPRESENTATION_CONTEXT() REPRESENTATION_CONTEXT('2D SPACE',''
  ) );
#603 = PCURVE('',#604,#609);
#604 = PLANE('',#605);
#605 = AXIS2_PLACEMENT_3D('',#606,#607,#608);
#606 = CARTESIAN_POINT('',(-7.33234845075,8.979537060444E-16,70.));
#607 = DIRECTION('',(0.866025403784,0.5,-0.));
#608 = DIRECTION('',(0.5,-0.866025403784,0.));
#609 = DEFINITIONAL_REPRESENTATION('',(#610),#614);
#610 = LINE('',#611,#612);
#611 = CARTESIAN_POINT('',(0.,0.));
#612 = VECTOR('',#613,1.);
#613 = DIRECTION('',(1.,0.));
#614 = ( GEOMETRIC_REPRESENTATION_CONTEXT(2) 
PARAMETRIC_REPRESENTATION_CONTEXT() REPRESENTATION_CONTEXT('2D SPACE',''
  ) );
#615 = ORIENTED_EDGE('',*,*,#616,.F.);
#616 = EDGE_CURVE('',#617,#589,#619,.T.);
#617 = VERTEX_POINT('',#618);
#618 = CARTESIAN_POINT('',(-3.666174225375,6.350000027749,70.));
#619 = SURFACE_CURVE('',#620,(#624,#631),.PCURVE_S1.);
#620 = LINE('',#621,#622);
#621 = CARTESIAN_POINT('',(-3.666174225375,6.350000027749,70.));
#622 = VECTOR('',#623,1.);
#623 = DIRECTION('',(-0.5,-0.866025403784,0.));
#624 = PCURVE('',#94,#625);
#625 = DEFINITIONAL_REPRESENTATION('',(#626),#630);
#626 = LINE('',#627,#628);
#627 = CARTESIAN_POINT('',(-3.666174225375,6.350000027749));
#628 = VECTOR('',#629,1.);
#629 = DIRECTION('',(-0.5,-0.866025403784));
#630 = ( GEOMETRIC_REPRESENTATION_CONTEXT(2) 
PARAMETRIC_REPRESENTATION_CONTEXT() REPRESENTATION_CONTEXT('2D SPACE',''
  ) );
#631 = PCURVE('',#632,#637);
#632 = PLANE('',#633);
#633 = AXIS2_PLACEMENT_3D('',#634,#635,#636);
#634 = CARTESIAN_POINT('',(-3.666174225375,6.350000027749,70.));
#635 = DIRECTION('',(0.866025403784,-0.5,0.));
#636 = DIRECTION('',(-0.5,-0.866025403784,0.));
#637 = DEFINITIONAL_REPRESENTATION('',(#638),#642);
#638 = LINE('',#639,#640);
#639 = CARTESIAN_POINT('',(0.,0.));
#640 = VECTOR('',#641,1.);
#641 = DIRECTION('',(1.,0.));
#642 = ( GEOMETRIC_REPRESENTATION_CONTEXT(2) 
PARAMETRIC_REPRESENTATION_CONTEXT() REPRESENTATION_CONTEXT('2D SPACE',''
  ) );
#643 = ORIENTED_EDGE('',*,*,#644,.F.);
#644 = EDGE_CURVE('',#505,#617,#645,.T.);
#645 = SURFACE_CURVE('',#646,(#650,#657),.PCURVE_S1.);
#646 = LINE('',#647,#648);
#647 = CARTESIAN_POINT('',(3.666174225375,6.350000027749,70.));
#648 = VECTOR('',#649,1.);
#649 = DIRECTION('',(-1.,1.211315072744E-16,0.));
#650 = PCURVE('',#94,#651);
#651 = DEFINITIONAL_REPRESENTATION('',(#652),#656);
#652 = LINE('',#653,#654);
#653 = CARTESIAN_POINT('',(3.666174225375,6.350000027749));
#654 = VECTOR('',#655,1.);
#655 = DIRECTION('',(-1.,1.211315072744E-16));
#656 = ( GEOMETRIC_REPRESENTATION_CONTEXT(2) 
PARAMETRIC_REPRESENTATION_CONTEXT() REPRESENTATION_CONTEXT('2D SPACE',''
  ) );
#657 = PCURVE('',#658,#663);
#658 = PLANE('',#659);
#659 = AXIS2_PLACEMENT_3D('',#660,#661,#662);
#660 = CARTESIAN_POINT('',(3.666174225375,6.350000027749,70.));
#661 = DIRECTION('',(-1.211315072744E-16,-1.,0.));
#662 = DIRECTION('',(-1.,1.211315072744E-16,0.));
#663 = DEFINITIONAL_REPRESENTATION('',(#664),#668);
#664 = LINE('',#665,#666);
#665 = CARTESIAN_POINT('',(0.,0.));
#666 = VECTOR('',#667,1.);
#667 = DIRECTION('',(1.,0.));
#668 = ( GEOMETRIC_REPRESENTATION_CONTEXT(2) 
PARAMETRIC_REPRESENTATION_CONTEXT() REPRESENTATION_CONTEXT('2D SPACE',''
  ) );
#669 = ADVANCED_FACE('',(#670,#673),#66,.F.);
#670 = FACE_BOUND('',#671,.F.);
#671 = EDGE_LOOP('',(#672));
#672 = ORIENTED_EDGE('',*,*,#51,.T.);
#673 = FACE_BOUND('',#674,.F.);
#674 = EDGE_LOOP('',(#675));
#675 = ORIENTED_EDGE('',*,*,#676,.F.);
#676 = EDGE_CURVE('',#677,#677,#679,.T.);
#677 = VERTEX_POINT('',#678);
#678 = CARTESIAN_POINT('',(17.525,0.,0.));
#679 = SURFACE_CURVE('',#680,(#685,#692),.PCURVE_S1.);
#680 = CIRCLE('',#681,17.525);
#681 = AXIS2_PLACEMENT_3D('',#682,#683,#684);
#682 = CARTESIAN_POINT('',(0.,0.,0.));
#683 = DIRECTION('',(0.,0.,1.));
#684 = DIRECTION('',(1.,0.,-0.));
#685 = PCURVE('',#66,#686);
#686 = DEFINITIONAL_REPRESENTATION('',(#687),#691);
#687 = CIRCLE('',#688,17.525);
#688 = AXIS2_PLACEMENT_2D('',#689,#690);
#689 = CARTESIAN_POINT('',(0.,-2.249429367154E-15));
#690 = DIRECTION('',(1.,0.));
#691 = ( GEOMETRIC_REPRESENTATION_CONTEXT(2) 
PARAMETRIC_REPRESENTATION_CONTEXT() REPRESENTATION_CONTEXT('2D SPACE',''
  ) );
#692 = PCURVE('',#693,#698);
#693 = CYLINDRICAL_SURFACE('',#694,17.525);
#694 = AXIS2_PLACEMENT_3D('',#695,#696,#697);
#695 = CARTESIAN_POINT('',(0.,0.,0.));
#696 = DIRECTION('',(-0.,-0.,-1.));
#697 = DIRECTION('',(1.,0.,-0.));
#698 = DEFINITIONAL_REPRESENTATION('',(#699),#703);
#699 = LINE('',#700,#701);
#700 = CARTESIAN_POINT('',(-0.,0.));
#701 = VECTOR('',#702,1.);
#702 = DIRECTION('',(-1.,0.));
#703 = ( GEOMETRIC_REPRESENTATION_CONTEXT(2) 
PARAMETRIC_REPRESENTATION_CONTEXT() REPRESENTATION_CONTEXT('2D SPACE',''
  ) );
#704 = ADVANCED_FACE('',(#705),#234,.F.);
#705 = FACE_BOUND('',#706,.T.);
#706 = EDGE_LOOP('',(#707,#708,#731,#917));
#707 = ORIENTED_EDGE('',*,*,#108,.F.);
#708 = ORIENTED_EDGE('',*,*,#709,.T.);
#709 = EDGE_CURVE('',#109,#710,#712,.T.);
#710 = VERTEX_POINT('',#711);
#711 = CARTESIAN_POINT('',(4.15,17.026541780409,30.));
#712 = SEAM_CURVE('',#713,(#717,#724),.PCURVE_S1.);
#713 = LINE('',#714,#715);
#714 = CARTESIAN_POINT('',(4.15,60.,30.));
#715 = VECTOR('',#716,1.);
#716 = DIRECTION('',(0.,-1.,2.22044604925E-16));
#717 = PCURVE('',#234,#718);
#718 = DEFINITIONAL_REPRESENTATION('',(#719),#723);
#719 = LINE('',#720,#721);
#720 = CARTESIAN_POINT('',(-6.28318530718,0.));
#721 = VECTOR('',#722,1.);
#722 = DIRECTION('',(-0.,-1.));
#723 = ( GEOMETRIC_REPRESENTATION_CONTEXT(2) 
PARAMETRIC_REPRESENTATION_CONTEXT() REPRESENTATION_CONTEXT('2D SPACE',''
  ) );
#724 = PCURVE('',#234,#725);
#725 = DEFINITIONAL_REPRESENTATION('',(#726),#730);
#726 = LINE('',#727,#728);
#727 = CARTESIAN_POINT('',(-0.,0.));
#728 = VECTOR('',#729,1.);
#729 = DIRECTION('',(-0.,-1.));
#730 = ( GEOMETRIC_REPRESENTATION_CONTEXT(2) 
PARAMETRIC_REPRESENTATION_CONTEXT() REPRESENTATION_CONTEXT('2D SPACE',''
  ) );
#731 = ORIENTED_EDGE('',*,*,#732,.T.);
#732 = EDGE_CURVE('',#710,#710,#733,.T.);
#733 = SURFACE_CURVE('',#734,(#793,#855),.PCURVE_S1.);
#734 = B_SPLINE_CURVE_WITH_KNOTS('',8,(#735,#736,#737,#738,#739,#740,
    #741,#742,#743,#744,#745,#746,#747,#748,#749,#750,#751,#752,#753,
    #754,#755,#756,#757,#758,#759,#760,#761,#762,#763,#764,#765,#766,
    #767,#768,#769,#770,#771,#772,#773,#774,#775,#776,#777,#778,#779,
    #780,#781,#782,#783,#784,#785,#786,#787,#788,#789,#790,#791,#792),
  .UNSPECIFIED.,.T.,.F.,(9,7,7,7,7,7,7,7,9),(0.,0.174394620258,
    0.247038915389,0.324700848397,0.499466934972,0.674232074421,
    0.74703070978,0.824857643501,1.),.UNSPECIFIED.);
#735 = CARTESIAN_POINT('',(4.15,17.026541780409,30.));
#736 = CARTESIAN_POINT('',(4.15,17.026541780409,30.495140712986));
#737 = CARTESIAN_POINT('',(4.082484176156,17.042998559744,
    30.988153530605));
#738 = CARTESIAN_POINT('',(3.948472612502,17.075658192323,
    31.474889891966));
#739 = CARTESIAN_POINT('',(3.745979540602,17.123436973386,
    31.950608819122));
#740 = CARTESIAN_POINT('',(3.471158913216,17.184161100692,32.40827613879
    ));
#741 = CARTESIAN_POINT('',(3.119041710085,17.253978845195,
    32.837466216413));
#742 = CARTESIAN_POINT('',(2.684448586674,17.326088671559,
    33.222876253325));
#743 = CARTESIAN_POINT('',(1.948651043221,17.417690004676,
    33.672816402627));
#744 = CARTESIAN_POINT('',(1.715838029848,17.443548683672,
    33.794419222188));
#745 = CARTESIAN_POINT('',(1.468016108347,17.467342105165,
    33.902017054278));
#746 = CARTESIAN_POINT('',(1.207023376636,17.488061566408,
    33.992810771115));
#747 = CARTESIAN_POINT('',(0.935037822321,17.504787210017,
    34.064494258459));
#748 = CARTESIAN_POINT('',(0.654509212781,17.516775812069,
    34.115254271705));
#749 = CARTESIAN_POINT('',(0.368085698272,17.523526446899,
    34.143776355817));
#750 = CARTESIAN_POINT('',(-0.231015084344,17.526211236007,
    34.155115845903));
#751 = CARTESIAN_POINT('',(-0.538847758663,17.521341703901,
    34.134540280623));
#752 = CARTESIAN_POINT('',(-0.841411950053,17.510323231792,
    34.088124304973));
#753 = CARTESIAN_POINT('',(-1.135262223526,17.493650582434,
    34.017208559701));
#754 = CARTESIAN_POINT('',(-1.417182179955,17.472182545671,
    33.92385491912));
#755 = CARTESIAN_POINT('',(-1.684301762745,17.447044117255,
    33.810838459487));
#756 = CARTESIAN_POINT('',(-1.934204365773,17.419488508796,
    33.681650544934));
#757 = CARTESIAN_POINT('',(-2.684433872051,17.32609050342,
    33.222885251315));
#758 = CARTESIAN_POINT('',(-3.119039566808,17.253980127015,
    32.837474295108));
#759 = CARTESIAN_POINT('',(-3.471165179349,17.184159825069,
    32.408272438636));
#760 = CARTESIAN_POINT('',(-3.745986255627,17.123435393845,
    31.950597706739));
#761 = CARTESIAN_POINT('',(-3.948476003515,17.075657337612,
    31.474877363496));
#762 = CARTESIAN_POINT('',(-4.082483453792,17.042998740313,
    30.988147139121));
#763 = CARTESIAN_POINT('',(-4.15,17.026541780409,30.495143396364));
#764 = CARTESIAN_POINT('',(-4.15,17.026541780409,29.504859287014));
#765 = CARTESIAN_POINT('',(-4.082484176157,17.042998559744,
    29.011846469395));
#766 = CARTESIAN_POINT('',(-3.948472612501,17.075658192322,
    28.525110108035));
#767 = CARTESIAN_POINT('',(-3.745979540604,17.123436973386,
    28.049391180878));
#768 = CARTESIAN_POINT('',(-3.471158913213,17.184161100692,
    27.591723861209));
#769 = CARTESIAN_POINT('',(-3.119041710087,17.253978845195,
    27.162533783588));
#770 = CARTESIAN_POINT('',(-2.684448586673,17.326088671559,
    26.777123746675));
#771 = CARTESIAN_POINT('',(-1.948651043221,17.417690004676,
    26.327183597373));
#772 = CARTESIAN_POINT('',(-1.715838029848,17.443548683672,
    26.205580777812));
#773 = CARTESIAN_POINT('',(-1.468016108347,17.467342105165,
    26.097982945722));
#774 = CARTESIAN_POINT('',(-1.207023376636,17.488061566408,
    26.007189228885));
#775 = CARTESIAN_POINT('',(-0.935037822321,17.504787210017,
    25.935505741541));
#776 = CARTESIAN_POINT('',(-0.654509212781,17.516775812069,
    25.884745728294));
#777 = CARTESIAN_POINT('',(-0.368085698272,17.523526446899,
    25.856223644183));
#778 = CARTESIAN_POINT('',(0.231015084344,17.526211236007,
    25.844884154097));
#779 = CARTESIAN_POINT('',(0.538847758663,17.521341703901,
    25.865459719377));
#780 = CARTESIAN_POINT('',(0.841411950053,17.510323231791,
    25.911875695027));
#781 = CARTESIAN_POINT('',(1.135262223526,17.493650582434,
    25.982791440299));
#782 = CARTESIAN_POINT('',(1.417182179954,17.472182545671,
    26.076145080879));
#783 = CARTESIAN_POINT('',(1.684301762745,17.447044117255,
    26.189161540513));
#784 = CARTESIAN_POINT('',(1.934204365773,17.419488508796,
    26.318349455066));
#785 = CARTESIAN_POINT('',(2.684448586674,17.326088671559,
    26.777123746675));
#786 = CARTESIAN_POINT('',(3.119041710086,17.253978845195,
    27.162533783586));
#787 = CARTESIAN_POINT('',(3.471158913213,17.184161100692,
    27.591723861214));
#788 = CARTESIAN_POINT('',(3.745979540605,17.123436973386,
    28.049391180872));
#789 = CARTESIAN_POINT('',(3.9484726125,17.075658192322,28.525110108041)
  );
#790 = CARTESIAN_POINT('',(4.082484176157,17.042998559744,
    29.011846469392));
#791 = CARTESIAN_POINT('',(4.15,17.026541780409,29.504859287015));
#792 = CARTESIAN_POINT('',(4.15,17.026541780409,30.));
#793 = PCURVE('',#234,#794);
#794 = DEFINITIONAL_REPRESENTATION('',(#795),#854);
#795 = B_SPLINE_CURVE_WITH_KNOTS('',8,(#796,#797,#798,#799,#800,#801,
    #802,#803,#804,#805,#806,#807,#808,#809,#810,#811,#812,#813,#814,
    #815,#816,#817,#818,#819,#820,#821,#822,#823,#824,#825,#826,#827,
    #828,#829,#830,#831,#832,#833,#834,#835,#836,#837,#838,#839,#840,
    #841,#842,#843,#844,#845,#846,#847,#848,#849,#850,#851,#852,#853),
  .UNSPECIFIED.,.F.,.F.,(9,7,7,7,7,7,7,7,9),(0.,0.174394620258,
    0.247038915389,0.324700848397,0.499466934972,0.674232074421,
    0.74703070978,0.824857643501,1.),.UNSPECIFIED.);
#796 = CARTESIAN_POINT('',(0.,-42.97345821959));
#797 = CARTESIAN_POINT('',(-0.119311015177,-42.97345821959));
#798 = CARTESIAN_POINT('',(-0.238109955329,-42.95700144025));
#799 = CARTESIAN_POINT('',(-0.357980130044,-42.92434180767));
#800 = CARTESIAN_POINT('',(-0.480292281101,-42.87656302661));
#801 = CARTESIAN_POINT('',(-0.606315379213,-42.8158388993));
#802 = CARTESIAN_POINT('',(-0.737462235586,-42.7460211548));
#803 = CARTESIAN_POINT('',(-0.875253578797,-42.67391132844));
#804 = CARTESIAN_POINT('',(-1.083076231021,-42.58230999532));
#805 = CARTESIAN_POINT('',(-1.146223177237,-42.55645131632));
#806 = CARTESIAN_POINT('',(-1.211042846288,-42.53265789483));
#807 = CARTESIAN_POINT('',(-1.277250611248,-42.51193843359));
#808 = CARTESIAN_POINT('',(-1.344617391629,-42.49521278998));
#809 = CARTESIAN_POINT('',(-1.412951974565,-42.48322418793));
#810 = CARTESIAN_POINT('',(-1.482087351423,-42.4764735531));
#811 = CARTESIAN_POINT('',(-1.626474842315,-42.47378876399));
#812 = CARTESIAN_POINT('',(-1.700544246067,-42.47865829609));
#813 = CARTESIAN_POINT('',(-1.773859428649,-42.4896767682));
#814 = CARTESIAN_POINT('',(-1.84619054509,-42.50634941756));
#815 = CARTESIAN_POINT('',(-1.91728012847,-42.52781745432));
#816 = CARTESIAN_POINT('',(-1.986822329979,-42.55295588274));
#817 = CARTESIAN_POINT('',(-2.054436024571,-42.5805114912));
#818 = CARTESIAN_POINT('',(-2.266334918715,-42.67390949658));
#819 = CARTESIAN_POINT('',(-2.40412895692,-42.74601987298));
#820 = CARTESIAN_POINT('',(-2.535278647778,-42.81584017493));
#821 = CARTESIAN_POINT('',(-2.661303437888,-42.87656460615));
#822 = CARTESIAN_POINT('',(-2.783615478009,-42.92434266238));
#823 = CARTESIAN_POINT('',(-2.903484244461,-42.95700125968));
#824 = CARTESIAN_POINT('',(-3.022280991815,-42.97345821959));
#825 = CARTESIAN_POINT('',(-3.260903668767,-42.97345821959));
#826 = CARTESIAN_POINT('',(-3.379702608919,-42.95700144025));
#827 = CARTESIAN_POINT('',(-3.499572783635,-42.92434180767));
#828 = CARTESIAN_POINT('',(-3.621884934689,-42.87656302661));
#829 = CARTESIAN_POINT('',(-3.747908032804,-42.8158388993));
#830 = CARTESIAN_POINT('',(-3.879054889175,-42.7460211548));
#831 = CARTESIAN_POINT('',(-4.016846232387,-42.67391132844));
#832 = CARTESIAN_POINT('',(-4.224668884611,-42.58230999532));
#833 = CARTESIAN_POINT('',(-4.287815830826,-42.55645131632));
#834 = CARTESIAN_POINT('',(-4.352635499878,-42.53265789483));
#835 = CARTESIAN_POINT('',(-4.418843264838,-42.51193843359));
#836 = CARTESIAN_POINT('',(-4.486210045219,-42.49521278998));
#837 = CARTESIAN_POINT('',(-4.554544628155,-42.48322418793));
#838 = CARTESIAN_POINT('',(-4.623680005013,-42.4764735531));
#839 = CARTESIAN_POINT('',(-4.768067495905,-42.47378876399));
#840 = CARTESIAN_POINT('',(-4.842136899657,-42.47865829609));
#841 = CARTESIAN_POINT('',(-4.915452082239,-42.4896767682));
#842 = CARTESIAN_POINT('',(-4.98778319868,-42.50634941756));
#843 = CARTESIAN_POINT('',(-5.05887278206,-42.52781745432));
#844 = CARTESIAN_POINT('',(-5.128414983569,-42.55295588274));
#845 = CARTESIAN_POINT('',(-5.196028678161,-42.5805114912));
#846 = CARTESIAN_POINT('',(-5.407931728383,-42.67391132844));
#847 = CARTESIAN_POINT('',(-5.545723071593,-42.7460211548));
#848 = CARTESIAN_POINT('',(-5.676869927968,-42.8158388993));
#849 = CARTESIAN_POINT('',(-5.802893026077,-42.87656302661));
#850 = CARTESIAN_POINT('',(-5.925205177137,-42.92434180767));
#851 = CARTESIAN_POINT('',(-6.045075351849,-42.95700144025));
#852 = CARTESIAN_POINT('',(-6.163874292002,-42.97345821959));
#853 = CARTESIAN_POINT('',(-6.28318530718,-42.97345821959));
#854 = ( GEOMETRIC_REPRESENTATION_CONTEXT(2) 
PARAMETRIC_REPRESENTATION_CONTEXT() REPRESENTATION_CONTEXT('2D SPACE',''
  ) );
#855 = PCURVE('',#693,#856);
#856 = DEFINITIONAL_REPRESENTATION('',(#857),#916);
#857 = B_SPLINE_CURVE_WITH_KNOTS('',8,(#858,#859,#860,#861,#862,#863,
    #864,#865,#866,#867,#868,#869,#870,#871,#872,#873,#874,#875,#876,
    #877,#878,#879,#880,#881,#882,#883,#884,#885,#886,#887,#888,#889,
    #890,#891,#892,#893,#894,#895,#896,#897,#898,#899,#900,#901,#902,
    #903,#904,#905,#906,#907,#908,#909,#910,#911,#912,#913,#914,#915),
  .UNSPECIFIED.,.T.,.F.,(9,7,7,7,7,7,7,7,9),(0.,0.174394620258,
    0.247038915389,0.324700848397,0.499466934972,0.674232074421,
    0.74703070978,0.824857643501,1.),.UNSPECIFIED.);
#858 = CARTESIAN_POINT('',(-1.331720783676,-30.));
#859 = CARTESIAN_POINT('',(-1.331720783676,-30.49514071298));
#860 = CARTESIAN_POINT('',(-1.33568610303,-30.9881535306));
#861 = CARTESIAN_POINT('',(-1.343556895714,-31.47488989196));
#862 = CARTESIAN_POINT('',(-1.355428094164,-31.95060881912));
#863 = CARTESIAN_POINT('',(-1.37148481547,-32.40827613878));
#864 = CARTESIAN_POINT('',(-1.391956066734,-32.83746621641));
#865 = CARTESIAN_POINT('',(-1.417072875823,-33.22287625332));
#866 = CARTESIAN_POINT('',(-1.459382574179,-33.67281640262));
#867 = CARTESIAN_POINT('',(-1.472747724554,-33.79441922218));
#868 = CARTESIAN_POINT('',(-1.486951100574,-33.90201705427));
#869 = CARTESIAN_POINT('',(-1.501886303817,-33.99281077111));
#870 = CARTESIAN_POINT('',(-1.517430306586,-34.06449425845));
#871 = CARTESIAN_POINT('',(-1.53344740456,-34.1152542717));
#872 = CARTESIAN_POINT('',(-1.549792682368,-34.14377635581));
#873 = CARTESIAN_POINT('',(-1.583978519648,-34.1551158459));
#874 = CARTESIAN_POINT('',(-1.601542446881,-34.13454028062));
#875 = CARTESIAN_POINT('',(-1.618812557236,-34.08812430497));
#876 = CARTESIAN_POINT('',(-1.635600437929,-34.0172085597));
#877 = CARTESIAN_POINT('',(-1.651728353409,-33.92385491912));
#878 = CARTESIAN_POINT('',(-1.667034581144,-33.81083845948));
#879 = CARTESIAN_POINT('',(-1.681379369155,-33.68165054493));
#880 = CARTESIAN_POINT('',(-1.72451893165,-33.22288525131));
#881 = CARTESIAN_POINT('',(-1.749636456259,-32.8374742951));
#882 = CARTESIAN_POINT('',(-1.770108199525,-32.40827243863));
#883 = CARTESIAN_POINT('',(-1.786164954764,-31.95059770674));
#884 = CARTESIAN_POINT('',(-1.798035956777,-31.47487736349));
#885 = CARTESIAN_POINT('',(-1.805906508188,-30.98814713912));
#886 = CARTESIAN_POINT('',(-1.809871869914,-30.49514339636));
#887 = CARTESIAN_POINT('',(-1.809871869914,-29.50485928701));
#888 = CARTESIAN_POINT('',(-1.80590655056,-29.01184646939));
#889 = CARTESIAN_POINT('',(-1.798035757876,-28.52511010803));
#890 = CARTESIAN_POINT('',(-1.786164559426,-28.04939118087));
#891 = CARTESIAN_POINT('',(-1.77010783812,-27.59172386121));
#892 = CARTESIAN_POINT('',(-1.749636586856,-27.16253378358));
#893 = CARTESIAN_POINT('',(-1.724519777767,-26.77712374667));
#894 = CARTESIAN_POINT('',(-1.68221007941,-26.32718359737));
#895 = CARTESIAN_POINT('',(-1.668844929036,-26.20558077781));
#896 = CARTESIAN_POINT('',(-1.654641553016,-26.09798294572));
#897 = CARTESIAN_POINT('',(-1.639706349773,-26.00718922888));
#898 = CARTESIAN_POINT('',(-1.624162347004,-25.93550574154));
#899 = CARTESIAN_POINT('',(-1.60814524903,-25.88474572829));
#900 = CARTESIAN_POINT('',(-1.591799971222,-25.85622364418));
#901 = CARTESIAN_POINT('',(-1.557614133941,-25.84488415409));
#902 = CARTESIAN_POINT('',(-1.540050206709,-25.86545971937));
#903 = CARTESIAN_POINT('',(-1.522780096354,-25.91187569502));
#904 = CARTESIAN_POINT('',(-1.50599221566,-25.98279144029));
#905 = CARTESIAN_POINT('',(-1.489864300181,-26.07614508088));
#906 = CARTESIAN_POINT('',(-1.474558072446,-26.18916154051));
#907 = CARTESIAN_POINT('',(-1.460213284435,-26.31834945506));
#908 = CARTESIAN_POINT('',(-1.417072875823,-26.77712374667));
#909 = CARTESIAN_POINT('',(-1.391956066734,-27.16253378358));
#910 = CARTESIAN_POINT('',(-1.37148481547,-27.59172386121));
#911 = CARTESIAN_POINT('',(-1.355428094164,-28.04939118087));
#912 = CARTESIAN_POINT('',(-1.343556895713,-28.52511010804));
#913 = CARTESIAN_POINT('',(-1.33568610303,-29.01184646939));
#914 = CARTESIAN_POINT('',(-1.331720783676,-29.50485928701));
#915 = CARTESIAN_POINT('',(-1.331720783676,-30.));
#916 = ( GEOMETRIC_REPRESENTATION_CONTEXT(2) 
PARAMETRIC_REPRESENTATION_CONTEXT() REPRESENTATION_CONTEXT('2D SPACE',''
  ) );
#917 = ORIENTED_EDGE('',*,*,#709,.F.);
#918 = ADVANCED_FACE('',(#919),#429,.F.);
#919 = FACE_BOUND('',#920,.T.);
#920 = EDGE_LOOP('',(#921,#1109,#1130,#1131));
#921 = ORIENTED_EDGE('',*,*,#922,.F.);
#922 = EDGE_CURVE('',#923,#923,#925,.T.);
#923 = VERTEX_POINT('',#924);
#924 = CARTESIAN_POINT('',(4.15,-17.0265417804,30.));
#925 = SURFACE_CURVE('',#926,(#985,#1047),.PCURVE_S1.);
#926 = B_SPLINE_CURVE_WITH_KNOTS('',8,(#927,#928,#929,#930,#931,#932,
    #933,#934,#935,#936,#937,#938,#939,#940,#941,#942,#943,#944,#945,
    #946,#947,#948,#949,#950,#951,#952,#953,#954,#955,#956,#957,#958,
    #959,#960,#961,#962,#963,#964,#965,#966,#967,#968,#969,#970,#971,
    #972,#973,#974,#975,#976,#977,#978,#979,#980,#981,#982,#983,#984),
  .UNSPECIFIED.,.T.,.F.,(9,7,7,7,7,7,7,7,9),(0.,0.174394622482,
    0.24703891854,0.324700852019,0.499466938416,0.674232077687,
    0.747030712971,0.824857646092,1.),.UNSPECIFIED.);
#927 = CARTESIAN_POINT('',(4.15,-17.0265417804,30.));
#928 = CARTESIAN_POINT('',(4.15,-17.0265417804,30.495140712984));
#929 = CARTESIAN_POINT('',(4.082484176157,-17.04299855974,
    30.988153530609));
#930 = CARTESIAN_POINT('',(3.948472612499,-17.07565819232,
    31.474889891959));
#931 = CARTESIAN_POINT('',(3.745979540606,-17.12343697338,
    31.950608819127));
#932 = CARTESIAN_POINT('',(3.471158913213,-17.18416110069,
    32.408276138787));
#933 = CARTESIAN_POINT('',(3.119041710085,-17.25397884519,
    32.837466216414));
#934 = CARTESIAN_POINT('',(2.684448586674,-17.32608867155,
    33.222876253324));
#935 = CARTESIAN_POINT('',(1.948651043221,-17.41769000467,
    33.672816402627));
#936 = CARTESIAN_POINT('',(1.715838029848,-17.44354868367,
    33.794419222188));
#937 = CARTESIAN_POINT('',(1.468016108347,-17.46734210516,
    33.902017054278));
#938 = CARTESIAN_POINT('',(1.207023376636,-17.4880615664,33.992810771115
    ));
#939 = CARTESIAN_POINT('',(0.935037822321,-17.50478721001,
    34.064494258459));
#940 = CARTESIAN_POINT('',(0.654509212781,-17.51677581206,
    34.115254271706));
#941 = CARTESIAN_POINT('',(0.368085698271,-17.52352644689,
    34.143776355817));
#942 = CARTESIAN_POINT('',(-0.231015082272,-17.52621123599,
    34.155115845864));
#943 = CARTESIAN_POINT('',(-0.53884776236,-17.52134170397,
    34.134540280972));
#944 = CARTESIAN_POINT('',(-0.841411949579,-17.51032323158,
    34.088124303942));
#945 = CARTESIAN_POINT('',(-1.135262220562,-17.49365058259,
    34.017208560482));
#946 = CARTESIAN_POINT('',(-1.417182180428,-17.47218254588,
    33.923854920157));
#947 = CARTESIAN_POINT('',(-1.684301765397,-17.44704411684,
    33.810838457471));
#948 = CARTESIAN_POINT('',(-1.934204364139,-17.41948850899,
    33.681650545933));
#949 = CARTESIAN_POINT('',(-2.684433872051,-17.32609050342,
    33.222885251315));
#950 = CARTESIAN_POINT('',(-3.119039566808,-17.25398012701,
    32.837474295108));
#951 = CARTESIAN_POINT('',(-3.471165179349,-17.18415982506,
    32.408272438637));
#952 = CARTESIAN_POINT('',(-3.745986255627,-17.12343539384,
    31.950597706739));
#953 = CARTESIAN_POINT('',(-3.948476003516,-17.07565733761,
    31.474877363497));
#954 = CARTESIAN_POINT('',(-4.082483453792,-17.04299874031,
    30.98814713912));
#955 = CARTESIAN_POINT('',(-4.15,-17.0265417804,30.495143396364));
#956 = CARTESIAN_POINT('',(-4.15,-17.0265417804,29.504859287015));
#957 = CARTESIAN_POINT('',(-4.082484176156,-17.04299855974,
    29.011846469392));
#958 = CARTESIAN_POINT('',(-3.948472612502,-17.07565819232,
    28.525110108039));
#959 = CARTESIAN_POINT('',(-3.745979540602,-17.12343697338,
    28.049391180873));
#960 = CARTESIAN_POINT('',(-3.471158913216,-17.18416110069,
    27.591723861213));
#961 = CARTESIAN_POINT('',(-3.119041710084,-17.25397884519,
    27.162533783586));
#962 = CARTESIAN_POINT('',(-2.684448586674,-17.32608867155,
    26.777123746676));
#963 = CARTESIAN_POINT('',(-1.948651043221,-17.41769000467,
    26.327183597373));
#964 = CARTESIAN_POINT('',(-1.715838029848,-17.44354868367,
    26.205580777812));
#965 = CARTESIAN_POINT('',(-1.468016108347,-17.46734210516,
    26.097982945722));
#966 = CARTESIAN_POINT('',(-1.207023376636,-17.4880615664,
    26.007189228885));
#967 = CARTESIAN_POINT('',(-0.935037822321,-17.50478721001,
    25.935505741541));
#968 = CARTESIAN_POINT('',(-0.654509212781,-17.51677581206,
    25.884745728294));
#969 = CARTESIAN_POINT('',(-0.368085698272,-17.52352644689,
    25.856223644183));
#970 = CARTESIAN_POINT('',(0.231015082272,-17.52621123599,
    25.844884154136));
#971 = CARTESIAN_POINT('',(0.53884776236,-17.52134170397,25.865459719028
    ));
#972 = CARTESIAN_POINT('',(0.841411949579,-17.51032323158,
    25.911875696058));
#973 = CARTESIAN_POINT('',(1.135262220562,-17.49365058259,
    25.982791439518));
#974 = CARTESIAN_POINT('',(1.417182180428,-17.47218254588,
    26.076145079843));
#975 = CARTESIAN_POINT('',(1.684301765397,-17.44704411684,
    26.189161542529));
#976 = CARTESIAN_POINT('',(1.934204364139,-17.41948850899,
    26.318349454067));
#977 = CARTESIAN_POINT('',(2.684448586674,-17.32608867155,
    26.777123746675));
#978 = CARTESIAN_POINT('',(3.119041710086,-17.25397884519,
    27.162533783586));
#979 = CARTESIAN_POINT('',(3.471158913213,-17.18416110069,
    27.591723861212));
#980 = CARTESIAN_POINT('',(3.745979540605,-17.12343697338,
    28.049391180873));
#981 = CARTESIAN_POINT('',(3.9484726125,-17.07565819232,28.525110108041)
  );
#982 = CARTESIAN_POINT('',(4.082484176157,-17.04299855974,
    29.011846469391));
#983 = CARTESIAN_POINT('',(4.15,-17.0265417804,29.504859287015));
#984 = CARTESIAN_POINT('',(4.15,-17.0265417804,30.));
#985 = PCURVE('',#429,#986);
#986 = DEFINITIONAL_REPRESENTATION('',(#987),#1046);
#987 = B_SPLINE_CURVE_WITH_KNOTS('',8,(#988,#989,#990,#991,#992,#993,
    #994,#995,#996,#997,#998,#999,#1000,#1001,#1002,#1003,#1004,#1005,
    #1006,#1007,#1008,#1009,#1010,#1011,#1012,#1013,#1014,#1015,#1016,
    #1017,#1018,#1019,#1020,#1021,#1022,#1023,#1024,#1025,#1026,#1027,
    #1028,#1029,#1030,#1031,#1032,#1033,#1034,#1035,#1036,#1037,#1038,
    #1039,#1040,#1041,#1042,#1043,#1044,#1045),.UNSPECIFIED.,.F.,.F.,(9,
    7,7,7,7,7,7,7,9),(0.,0.174394622482,0.24703891854,0.324700852019,
    0.499466938416,0.674232077687,0.747030712971,0.824857646092,1.),
  .UNSPECIFIED.);
#988 = CARTESIAN_POINT('',(0.,-77.0265417804));
#989 = CARTESIAN_POINT('',(-0.119311015177,-77.0265417804));
#990 = CARTESIAN_POINT('',(-0.23810995533,-77.04299855974));
#991 = CARTESIAN_POINT('',(-0.357980130043,-77.07565819232));
#992 = CARTESIAN_POINT('',(-0.480292281102,-77.12343697338));
#993 = CARTESIAN_POINT('',(-0.606315379212,-77.18416110069));
#994 = CARTESIAN_POINT('',(-0.737462235586,-77.25397884519));
#995 = CARTESIAN_POINT('',(-0.875253578797,-77.32608867155));
#996 = CARTESIAN_POINT('',(-1.083076231021,-77.41769000467));
#997 = CARTESIAN_POINT('',(-1.146223177237,-77.44354868367));
#998 = CARTESIAN_POINT('',(-1.211042846288,-77.46734210516));
#999 = CARTESIAN_POINT('',(-1.277250611248,-77.4880615664));
#1000 = CARTESIAN_POINT('',(-1.344617391629,-77.50478721001));
#1001 = CARTESIAN_POINT('',(-1.412951974565,-77.51677581206));
#1002 = CARTESIAN_POINT('',(-1.482087351424,-77.52352644689));
#1003 = CARTESIAN_POINT('',(-1.626474841816,-77.52621123599));
#1004 = CARTESIAN_POINT('',(-1.700544246934,-77.52134170397));
#1005 = CARTESIAN_POINT('',(-1.773859428602,-77.51032323158));
#1006 = CARTESIAN_POINT('',(-1.846190544327,-77.49365058259));
#1007 = CARTESIAN_POINT('',(-1.917280128519,-77.47218254588));
#1008 = CARTESIAN_POINT('',(-1.986822330747,-77.44704411684));
#1009 = CARTESIAN_POINT('',(-2.054436024109,-77.41948850899));
#1010 = CARTESIAN_POINT('',(-2.266334918715,-77.32609050342));
#1011 = CARTESIAN_POINT('',(-2.40412895692,-77.25398012701));
#1012 = CARTESIAN_POINT('',(-2.535278647778,-77.18415982506));
#1013 = CARTESIAN_POINT('',(-2.661303437887,-77.12343539384));
#1014 = CARTESIAN_POINT('',(-2.783615478009,-77.07565733761));
#1015 = CARTESIAN_POINT('',(-2.903484244461,-77.04299874031));
#1016 = CARTESIAN_POINT('',(-3.022280991815,-77.0265417804));
#1017 = CARTESIAN_POINT('',(-3.260903668767,-77.0265417804));
#1018 = CARTESIAN_POINT('',(-3.37970260892,-77.04299855974));
#1019 = CARTESIAN_POINT('',(-3.499572783633,-77.07565819232));
#1020 = CARTESIAN_POINT('',(-3.621884934692,-77.12343697338));
#1021 = CARTESIAN_POINT('',(-3.747908032802,-77.18416110069));
#1022 = CARTESIAN_POINT('',(-3.879054889176,-77.25397884519));
#1023 = CARTESIAN_POINT('',(-4.016846232387,-77.32608867155));
#1024 = CARTESIAN_POINT('',(-4.224668884611,-77.41769000467));
#1025 = CARTESIAN_POINT('',(-4.287815830826,-77.44354868367));
#1026 = CARTESIAN_POINT('',(-4.352635499878,-77.46734210516));
#1027 = CARTESIAN_POINT('',(-4.418843264838,-77.4880615664));
#1028 = CARTESIAN_POINT('',(-4.486210045219,-77.50478721001));
#1029 = CARTESIAN_POINT('',(-4.554544628155,-77.51677581206));
#1030 = CARTESIAN_POINT('',(-4.623680005013,-77.52352644689));
#1031 = CARTESIAN_POINT('',(-4.768067495406,-77.52621123599));
#1032 = CARTESIAN_POINT('',(-4.842136900524,-77.52134170397));
#1033 = CARTESIAN_POINT('',(-4.915452082192,-77.51032323158));
#1034 = CARTESIAN_POINT('',(-4.987783197917,-77.49365058259));
#1035 = CARTESIAN_POINT('',(-5.058872782108,-77.47218254588));
#1036 = CARTESIAN_POINT('',(-5.128414984337,-77.44704411684));
#1037 = CARTESIAN_POINT('',(-5.196028677699,-77.41948850899));
#1038 = CARTESIAN_POINT('',(-5.407931728383,-77.32608867155));
#1039 = CARTESIAN_POINT('',(-5.545723071594,-77.25397884519));
#1040 = CARTESIAN_POINT('',(-5.676869927967,-77.18416110069));
#1041 = CARTESIAN_POINT('',(-5.802893026079,-77.12343697338));
#1042 = CARTESIAN_POINT('',(-5.925205177136,-77.07565819232));
#1043 = CARTESIAN_POINT('',(-6.04507535185,-77.04299855974));
#1044 = CARTESIAN_POINT('',(-6.163874292003,-77.0265417804));
#1045 = CARTESIAN_POINT('',(-6.28318530718,-77.0265417804));
#1046 = ( GEOMETRIC_REPRESENTATION_CONTEXT(2) 
PARAMETRIC_REPRESENTATION_CONTEXT() REPRESENTATION_CONTEXT('2D SPACE',''
  ) );
#1047 = PCURVE('',#693,#1048);
#1048 = DEFINITIONAL_REPRESENTATION('',(#1049),#1108);
#1049 = B_SPLINE_CURVE_WITH_KNOTS('',8,(#1050,#1051,#1052,#1053,#1054,
    #1055,#1056,#1057,#1058,#1059,#1060,#1061,#1062,#1063,#1064,#1065,
    #1066,#1067,#1068,#1069,#1070,#1071,#1072,#1073,#1074,#1075,#1076,
    #1077,#1078,#1079,#1080,#1081,#1082,#1083,#1084,#1085,#1086,#1087,
    #1088,#1089,#1090,#1091,#1092,#1093,#1094,#1095,#1096,#1097,#1098,
    #1099,#1100,#1101,#1102,#1103,#1104,#1105,#1106,#1107),
  .UNSPECIFIED.,.T.,.F.,(9,7,7,7,7,7,7,7,9),(0.,0.174394622482,
    0.24703891854,0.324700852019,0.499466938416,0.674232077687,
    0.747030712971,0.824857646092,1.),.UNSPECIFIED.);
#1050 = CARTESIAN_POINT('',(-4.951464523503,-30.));
#1051 = CARTESIAN_POINT('',(-4.951464523503,-30.49514071298));
#1052 = CARTESIAN_POINT('',(-4.947499204149,-30.98815353061));
#1053 = CARTESIAN_POINT('',(-4.939628411466,-31.47488989195));
#1054 = CARTESIAN_POINT('',(-4.927757213015,-31.95060881912));
#1055 = CARTESIAN_POINT('',(-4.91170049171,-32.40827613878));
#1056 = CARTESIAN_POINT('',(-4.891229240446,-32.83746621641));
#1057 = CARTESIAN_POINT('',(-4.866112431357,-33.22287625332));
#1058 = CARTESIAN_POINT('',(-4.823802733,-33.67281640262));
#1059 = CARTESIAN_POINT('',(-4.810437582626,-33.79441922218));
#1060 = CARTESIAN_POINT('',(-4.796234206606,-33.90201705427));
#1061 = CARTESIAN_POINT('',(-4.781299003362,-33.99281077111));
#1062 = CARTESIAN_POINT('',(-4.765755000594,-34.06449425845));
#1063 = CARTESIAN_POINT('',(-4.74973790262,-34.1152542717));
#1064 = CARTESIAN_POINT('',(-4.733392624812,-34.14377635581));
#1065 = CARTESIAN_POINT('',(-4.699206787649,-34.15511584586));
#1066 = CARTESIAN_POINT('',(-4.681642860088,-34.13454028097));
#1067 = CARTESIAN_POINT('',(-4.66437274997,-34.08812430394));
#1068 = CARTESIAN_POINT('',(-4.64758486942,-34.01720856048));
#1069 = CARTESIAN_POINT('',(-4.631456953744,-33.92385492015));
#1070 = CARTESIAN_POINT('',(-4.616150725883,-33.81083845747));
#1071 = CARTESIAN_POINT('',(-4.601805938118,-33.68165054593));
#1072 = CARTESIAN_POINT('',(-4.55866637553,-33.22288525131));
#1073 = CARTESIAN_POINT('',(-4.53354885092,-32.8374742951));
#1074 = CARTESIAN_POINT('',(-4.513077107654,-32.40827243863));
#1075 = CARTESIAN_POINT('',(-4.497020352415,-31.95059770673));
#1076 = CARTESIAN_POINT('',(-4.485149350403,-31.47487736349));
#1077 = CARTESIAN_POINT('',(-4.477278798992,-30.98814713912));
#1078 = CARTESIAN_POINT('',(-4.473313437266,-30.49514339636));
#1079 = CARTESIAN_POINT('',(-4.473313437266,-29.50485928701));
#1080 = CARTESIAN_POINT('',(-4.47727875662,-29.01184646939));
#1081 = CARTESIAN_POINT('',(-4.485149549303,-28.52511010803));
#1082 = CARTESIAN_POINT('',(-4.497020747754,-28.04939118087));
#1083 = CARTESIAN_POINT('',(-4.51307746906,-27.59172386121));
#1084 = CARTESIAN_POINT('',(-4.533548720324,-27.16253378358));
#1085 = CARTESIAN_POINT('',(-4.558665529412,-26.77712374667));
#1086 = CARTESIAN_POINT('',(-4.600975227769,-26.32718359737));
#1087 = CARTESIAN_POINT('',(-4.614340378144,-26.20558077781));
#1088 = CARTESIAN_POINT('',(-4.628543754163,-26.09798294572));
#1089 = CARTESIAN_POINT('',(-4.643478957407,-26.00718922888));
#1090 = CARTESIAN_POINT('',(-4.659022960176,-25.93550574154));
#1091 = CARTESIAN_POINT('',(-4.675040058149,-25.88474572829));
#1092 = CARTESIAN_POINT('',(-4.691385335957,-25.85622364418));
#1093 = CARTESIAN_POINT('',(-4.72557117312,-25.84488415413));
#1094 = CARTESIAN_POINT('',(-4.743135100681,-25.86545971902));
#1095 = CARTESIAN_POINT('',(-4.7604052108,-25.91187569605));
#1096 = CARTESIAN_POINT('',(-4.777193091349,-25.98279143951));
#1097 = CARTESIAN_POINT('',(-4.793321007025,-26.07614507984));
#1098 = CARTESIAN_POINT('',(-4.808627234887,-26.18916154252));
#1099 = CARTESIAN_POINT('',(-4.822972022651,-26.31834945406));
#1100 = CARTESIAN_POINT('',(-4.866112431357,-26.77712374667));
#1101 = CARTESIAN_POINT('',(-4.891229240446,-27.16253378358));
#1102 = CARTESIAN_POINT('',(-4.91170049171,-27.59172386121));
#1103 = CARTESIAN_POINT('',(-4.927757213015,-28.04939118087));
#1104 = CARTESIAN_POINT('',(-4.939628411466,-28.52511010804));
#1105 = CARTESIAN_POINT('',(-4.947499204149,-29.01184646939));
#1106 = CARTESIAN_POINT('',(-4.951464523503,-29.50485928701));
#1107 = CARTESIAN_POINT('',(-4.951464523503,-30.));
#1108 = ( GEOMETRIC_REPRESENTATION_CONTEXT(2) 
PARAMETRIC_REPRESENTATION_CONTEXT() REPRESENTATION_CONTEXT('2D SPACE',''
  ) );
#1109 = ORIENTED_EDGE('',*,*,#1110,.T.);
#1110 = EDGE_CURVE('',#923,#304,#1111,.T.);
#1111 = SEAM_CURVE('',#1112,(#1116,#1123),.PCURVE_S1.);
#1112 = LINE('',#1113,#1114);
#1113 = CARTESIAN_POINT('',(4.15,60.,30.));
#1114 = VECTOR('',#1115,1.);
#1115 = DIRECTION('',(0.,-1.,2.22044604925E-16));
#1116 = PCURVE('',#429,#1117);
#1117 = DEFINITIONAL_REPRESENTATION('',(#1118),#1122);
#1118 = LINE('',#1119,#1120);
#1119 = CARTESIAN_POINT('',(-6.28318530718,0.));
#1120 = VECTOR('',#1121,1.);
#1121 = DIRECTION('',(-0.,-1.));
#1122 = ( GEOMETRIC_REPRESENTATION_CONTEXT(2) 
PARAMETRIC_REPRESENTATION_CONTEXT() REPRESENTATION_CONTEXT('2D SPACE',''
  ) );
#1123 = PCURVE('',#429,#1124);
#1124 = DEFINITIONAL_REPRESENTATION('',(#1125),#1129);
#1125 = LINE('',#1126,#1127);
#1126 = CARTESIAN_POINT('',(-0.,0.));
#1127 = VECTOR('',#1128,1.);
#1128 = DIRECTION('',(-0.,-1.));
#1129 = ( GEOMETRIC_REPRESENTATION_CONTEXT(2) 
PARAMETRIC_REPRESENTATION_CONTEXT() REPRESENTATION_CONTEXT('2D SPACE',''
  ) );
#1130 = ORIENTED_EDGE('',*,*,#303,.T.);
#1131 = ORIENTED_EDGE('',*,*,#1110,.F.);
#1132 = ADVANCED_FACE('',(#1133),#520,.F.);
#1133 = FACE_BOUND('',#1134,.F.);
#1134 = EDGE_LOOP('',(#1135,#1158,#1186,#1207));
#1135 = ORIENTED_EDGE('',*,*,#1136,.T.);
#1136 = EDGE_CURVE('',#503,#1137,#1139,.T.);
#1137 = VERTEX_POINT('',#1138);
#1138 = CARTESIAN_POINT('',(7.33234845075,0.,140.));
#1139 = SURFACE_CURVE('',#1140,(#1144,#1151),.PCURVE_S1.);
#1140 = LINE('',#1141,#1142);
#1141 = CARTESIAN_POINT('',(7.33234845075,0.,70.));
#1142 = VECTOR('',#1143,1.);
#1143 = DIRECTION('',(0.,0.,1.));
#1144 = PCURVE('',#520,#1145);
#1145 = DEFINITIONAL_REPRESENTATION('',(#1146),#1150);
#1146 = LINE('',#1147,#1148);
#1147 = CARTESIAN_POINT('',(0.,0.));
#1148 = VECTOR('',#1149,1.);
#1149 = DIRECTION('',(0.,-1.));
#1150 = ( GEOMETRIC_REPRESENTATION_CONTEXT(2) 
PARAMETRIC_REPRESENTATION_CONTEXT() REPRESENTATION_CONTEXT('2D SPACE',''
  ) );
#1151 = PCURVE('',#548,#1152);
#1152 = DEFINITIONAL_REPRESENTATION('',(#1153),#1157);
#1153 = LINE('',#1154,#1155);
#1154 = CARTESIAN_POINT('',(7.33234845075,0.));
#1155 = VECTOR('',#1156,1.);
#1156 = DIRECTION('',(0.,-1.));
#1157 = ( GEOMETRIC_REPRESENTATION_CONTEXT(2) 
PARAMETRIC_REPRESENTATION_CONTEXT() REPRESENTATION_CONTEXT('2D SPACE',''
  ) );
#1158 = ORIENTED_EDGE('',*,*,#1159,.T.);
#1159 = EDGE_CURVE('',#1137,#1160,#1162,.T.);
#1160 = VERTEX_POINT('',#1161);
#1161 = CARTESIAN_POINT('',(3.666174225375,6.350000027749,140.));
#1162 = SURFACE_CURVE('',#1163,(#1167,#1174),.PCURVE_S1.);
#1163 = LINE('',#1164,#1165);
#1164 = CARTESIAN_POINT('',(7.33234845075,0.,140.));
#1165 = VECTOR('',#1166,1.);
#1166 = DIRECTION('',(-0.5,0.866025403784,0.));
#1167 = PCURVE('',#520,#1168);
#1168 = DEFINITIONAL_REPRESENTATION('',(#1169),#1173);
#1169 = LINE('',#1170,#1171);
#1170 = CARTESIAN_POINT('',(0.,-70.));
#1171 = VECTOR('',#1172,1.);
#1172 = DIRECTION('',(1.,0.));
#1173 = ( GEOMETRIC_REPRESENTATION_CONTEXT(2) 
PARAMETRIC_REPRESENTATION_CONTEXT() REPRESENTATION_CONTEXT('2D SPACE',''
  ) );
#1174 = PCURVE('',#1175,#1180);
#1175 = PLANE('',#1176);
#1176 = AXIS2_PLACEMENT_3D('',#1177,#1178,#1179);
#1177 = CARTESIAN_POINT('',(0.,0.,140.));
#1178 = DIRECTION('',(0.,0.,1.));
#1179 = DIRECTION('',(1.,0.,-0.));
#1180 = DEFINITIONAL_REPRESENTATION('',(#1181),#1185);
#1181 = LINE('',#1182,#1183);
#1182 = CARTESIAN_POINT('',(7.33234845075,0.));
#1183 = VECTOR('',#1184,1.);
#1184 = DIRECTION('',(-0.5,0.866025403784));
#1185 = ( GEOMETRIC_REPRESENTATION_CONTEXT(2) 
PARAMETRIC_REPRESENTATION_CONTEXT() REPRESENTATION_CONTEXT('2D SPACE',''
  ) );
#1186 = ORIENTED_EDGE('',*,*,#1187,.F.);
#1187 = EDGE_CURVE('',#505,#1160,#1188,.T.);
#1188 = SURFACE_CURVE('',#1189,(#1193,#1200),.PCURVE_S1.);
#1189 = LINE('',#1190,#1191);
#1190 = CARTESIAN_POINT('',(3.666174225375,6.350000027749,70.));
#1191 = VECTOR('',#1192,1.);
#1192 = DIRECTION('',(0.,0.,1.));
#1193 = PCURVE('',#520,#1194);
#1194 = DEFINITIONAL_REPRESENTATION('',(#1195),#1199);
#1195 = LINE('',#1196,#1197);
#1196 = CARTESIAN_POINT('',(7.33234845075,0.));
#1197 = VECTOR('',#1198,1.);
#1198 = DIRECTION('',(0.,-1.));
#1199 = ( GEOMETRIC_REPRESENTATION_CONTEXT(2) 
PARAMETRIC_REPRESENTATION_CONTEXT() REPRESENTATION_CONTEXT('2D SPACE',''
  ) );
#1200 = PCURVE('',#658,#1201);
#1201 = DEFINITIONAL_REPRESENTATION('',(#1202),#1206);
#1202 = LINE('',#1203,#1204);
#1203 = CARTESIAN_POINT('',(0.,0.));
#1204 = VECTOR('',#1205,1.);
#1205 = DIRECTION('',(0.,-1.));
#1206 = ( GEOMETRIC_REPRESENTATION_CONTEXT(2) 
PARAMETRIC_REPRESENTATION_CONTEXT() REPRESENTATION_CONTEXT('2D SPACE',''
  ) );
#1207 = ORIENTED_EDGE('',*,*,#502,.F.);
#1208 = ADVANCED_FACE('',(#1209),#658,.F.);
#1209 = FACE_BOUND('',#1210,.F.);
#1210 = EDGE_LOOP('',(#1211,#1212,#1235,#1256));
#1211 = ORIENTED_EDGE('',*,*,#1187,.T.);
#1212 = ORIENTED_EDGE('',*,*,#1213,.T.);
#1213 = EDGE_CURVE('',#1160,#1214,#1216,.T.);
#1214 = VERTEX_POINT('',#1215);
#1215 = CARTESIAN_POINT('',(-3.666174225375,6.350000027749,140.));
#1216 = SURFACE_CURVE('',#1217,(#1221,#1228),.PCURVE_S1.);
#1217 = LINE('',#1218,#1219);
#1218 = CARTESIAN_POINT('',(3.666174225375,6.350000027749,140.));
#1219 = VECTOR('',#1220,1.);
#1220 = DIRECTION('',(-1.,1.211315072744E-16,0.));
#1221 = PCURVE('',#658,#1222);
#1222 = DEFINITIONAL_REPRESENTATION('',(#1223),#1227);
#1223 = LINE('',#1224,#1225);
#1224 = CARTESIAN_POINT('',(0.,-70.));
#1225 = VECTOR('',#1226,1.);
#1226 = DIRECTION('',(1.,0.));
#1227 = ( GEOMETRIC_REPRESENTATION_CONTEXT(2) 
PARAMETRIC_REPRESENTATION_CONTEXT() REPRESENTATION_CONTEXT('2D SPACE',''
  ) );
#1228 = PCURVE('',#1175,#1229);
#1229 = DEFINITIONAL_REPRESENTATION('',(#1230),#1234);
#1230 = LINE('',#1231,#1232);
#1231 = CARTESIAN_POINT('',(3.666174225375,6.350000027749));
#1232 = VECTOR('',#1233,1.);
#1233 = DIRECTION('',(-1.,1.211315072744E-16));
#1234 = ( GEOMETRIC_REPRESENTATION_CONTEXT(2) 
PARAMETRIC_REPRESENTATION_CONTEXT() REPRESENTATION_CONTEXT('2D SPACE',''
  ) );
#1235 = ORIENTED_EDGE('',*,*,#1236,.F.);
#1236 = EDGE_CURVE('',#617,#1214,#1237,.T.);
#1237 = SURFACE_CURVE('',#1238,(#1242,#1249),.PCURVE_S1.);
#1238 = LINE('',#1239,#1240);
#1239 = CARTESIAN_POINT('',(-3.666174225375,6.350000027749,70.));
#1240 = VECTOR('',#1241,1.);
#1241 = DIRECTION('',(0.,0.,1.));
#1242 = PCURVE('',#658,#1243);
#1243 = DEFINITIONAL_REPRESENTATION('',(#1244),#1248);
#1244 = LINE('',#1245,#1246);
#1245 = CARTESIAN_POINT('',(7.33234845075,0.));
#1246 = VECTOR('',#1247,1.);
#1247 = DIRECTION('',(0.,-1.));
#1248 = ( GEOMETRIC_REPRESENTATION_CONTEXT(2) 
PARAMETRIC_REPRESENTATION_CONTEXT() REPRESENTATION_CONTEXT('2D SPACE',''
  ) );
#1249 = PCURVE('',#632,#1250);
#1250 = DEFINITIONAL_REPRESENTATION('',(#1251),#1255);
#1251 = LINE('',#1252,#1253);
#1252 = CARTESIAN_POINT('',(0.,0.));
#1253 = VECTOR('',#1254,1.);
#1254 = DIRECTION('',(0.,-1.));
#1255 = ( GEOMETRIC_REPRESENTATION_CONTEXT(2) 
PARAMETRIC_REPRESENTATION_CONTEXT() REPRESENTATION_CONTEXT('2D SPACE',''
  ) );
#1256 = ORIENTED_EDGE('',*,*,#644,.F.);
#1257 = ADVANCED_FACE('',(#1258),#632,.F.);
#1258 = FACE_BOUND('',#1259,.F.);
#1259 = EDGE_LOOP('',(#1260,#1261,#1284,#1305));
#1260 = ORIENTED_EDGE('',*,*,#1236,.T.);
#1261 = ORIENTED_EDGE('',*,*,#1262,.T.);
#1262 = EDGE_CURVE('',#1214,#1263,#1265,.T.);
#1263 = VERTEX_POINT('',#1264);
#1264 = CARTESIAN_POINT('',(-7.33234845075,8.979537060444E-16,140.));
#1265 = SURFACE_CURVE('',#1266,(#1270,#1277),.PCURVE_S1.);
#1266 = LINE('',#1267,#1268);
#1267 = CARTESIAN_POINT('',(-3.666174225375,6.350000027749,140.));
#1268 = VECTOR('',#1269,1.);
#1269 = DIRECTION('',(-0.5,-0.866025403784,0.));
#1270 = PCURVE('',#632,#1271);
#1271 = DEFINITIONAL_REPRESENTATION('',(#1272),#1276);
#1272 = LINE('',#1273,#1274);
#1273 = CARTESIAN_POINT('',(0.,-70.));
#1274 = VECTOR('',#1275,1.);
#1275 = DIRECTION('',(1.,0.));
#1276 = ( GEOMETRIC_REPRESENTATION_CONTEXT(2) 
PARAMETRIC_REPRESENTATION_CONTEXT() REPRESENTATION_CONTEXT('2D SPACE',''
  ) );
#1277 = PCURVE('',#1175,#1278);
#1278 = DEFINITIONAL_REPRESENTATION('',(#1279),#1283);
#1279 = LINE('',#1280,#1281);
#1280 = CARTESIAN_POINT('',(-3.666174225375,6.350000027749));
#1281 = VECTOR('',#1282,1.);
#1282 = DIRECTION('',(-0.5,-0.866025403784));
#1283 = ( GEOMETRIC_REPRESENTATION_CONTEXT(2) 
PARAMETRIC_REPRESENTATION_CONTEXT() REPRESENTATION_CONTEXT('2D SPACE',''
  ) );
#1284 = ORIENTED_EDGE('',*,*,#1285,.F.);
#1285 = EDGE_CURVE('',#589,#1263,#1286,.T.);
#1286 = SURFACE_CURVE('',#1287,(#1291,#1298),.PCURVE_S1.);
#1287 = LINE('',#1288,#1289);
#1288 = CARTESIAN_POINT('',(-7.33234845075,8.979537060444E-16,70.));
#1289 = VECTOR('',#1290,1.);
#1290 = DIRECTION('',(0.,0.,1.));
#1291 = PCURVE('',#632,#1292);
#1292 = DEFINITIONAL_REPRESENTATION('',(#1293),#1297);
#1293 = LINE('',#1294,#1295);
#1294 = CARTESIAN_POINT('',(7.33234845075,0.));
#1295 = VECTOR('',#1296,1.);
#1296 = DIRECTION('',(0.,-1.));
#1297 = ( GEOMETRIC_REPRESENTATION_CONTEXT(2) 
PARAMETRIC_REPRESENTATION_CONTEXT() REPRESENTATION_CONTEXT('2D SPACE',''
  ) );
#1298 = PCURVE('',#604,#1299);
#1299 = DEFINITIONAL_REPRESENTATION('',(#1300),#1304);
#1300 = LINE('',#1301,#1302);
#1301 = CARTESIAN_POINT('',(0.,0.));
#1302 = VECTOR('',#1303,1.);
#1303 = DIRECTION('',(0.,-1.));
#1304 = ( GEOMETRIC_REPRESENTATION_CONTEXT(2) 
PARAMETRIC_REPRESENTATION_CONTEXT() REPRESENTATION_CONTEXT('2D SPACE',''
  ) );
#1305 = ORIENTED_EDGE('',*,*,#616,.F.);
#1306 = ADVANCED_FACE('',(#1307),#604,.F.);
#1307 = FACE_BOUND('',#1308,.F.);
#1308 = EDGE_LOOP('',(#1309,#1310,#1333,#1354));
#1309 = ORIENTED_EDGE('',*,*,#1285,.T.);
#1310 = ORIENTED_EDGE('',*,*,#1311,.T.);
#1311 = EDGE_CURVE('',#1263,#1312,#1314,.T.);
#1312 = VERTEX_POINT('',#1313);
#1313 = CARTESIAN_POINT('',(-3.666174225375,-6.350000027749,140.));
#1314 = SURFACE_CURVE('',#1315,(#1319,#1326),.PCURVE_S1.);
#1315 = LINE('',#1316,#1317);
#1316 = CARTESIAN_POINT('',(-7.33234845075,8.979537060444E-16,140.));
#1317 = VECTOR('',#1318,1.);
#1318 = DIRECTION('',(0.5,-0.866025403784,0.));
#1319 = PCURVE('',#604,#1320);
#1320 = DEFINITIONAL_REPRESENTATION('',(#1321),#1325);
#1321 = LINE('',#1322,#1323);
#1322 = CARTESIAN_POINT('',(0.,-70.));
#1323 = VECTOR('',#1324,1.);
#1324 = DIRECTION('',(1.,0.));
#1325 = ( GEOMETRIC_REPRESENTATION_CONTEXT(2) 
PARAMETRIC_REPRESENTATION_CONTEXT() REPRESENTATION_CONTEXT('2D SPACE',''
  ) );
#1326 = PCURVE('',#1175,#1327);
#1327 = DEFINITIONAL_REPRESENTATION('',(#1328),#1332);
#1328 = LINE('',#1329,#1330);
#1329 = CARTESIAN_POINT('',(-7.33234845075,8.979537060444E-16));
#1330 = VECTOR('',#1331,1.);
#1331 = DIRECTION('',(0.5,-0.866025403784));
#1332 = ( GEOMETRIC_REPRESENTATION_CONTEXT(2) 
PARAMETRIC_REPRESENTATION_CONTEXT() REPRESENTATION_CONTEXT('2D SPACE',''
  ) );
#1333 = ORIENTED_EDGE('',*,*,#1334,.F.);
#1334 = EDGE_CURVE('',#561,#1312,#1335,.T.);
#1335 = SURFACE_CURVE('',#1336,(#1340,#1347),.PCURVE_S1.);
#1336 = LINE('',#1337,#1338);
#1337 = CARTESIAN_POINT('',(-3.666174225375,-6.350000027749,70.));
#1338 = VECTOR('',#1339,1.);
#1339 = DIRECTION('',(0.,0.,1.));
#1340 = PCURVE('',#604,#1341);
#1341 = DEFINITIONAL_REPRESENTATION('',(#1342),#1346);
#1342 = LINE('',#1343,#1344);
#1343 = CARTESIAN_POINT('',(7.33234845075,0.));
#1344 = VECTOR('',#1345,1.);
#1345 = DIRECTION('',(0.,-1.));
#1346 = ( GEOMETRIC_REPRESENTATION_CONTEXT(2) 
PARAMETRIC_REPRESENTATION_CONTEXT() REPRESENTATION_CONTEXT('2D SPACE',''
  ) );
#1347 = PCURVE('',#576,#1348);
#1348 = DEFINITIONAL_REPRESENTATION('',(#1349),#1353);
#1349 = LINE('',#1350,#1351);
#1350 = CARTESIAN_POINT('',(0.,0.));
#1351 = VECTOR('',#1352,1.);
#1352 = DIRECTION('',(0.,-1.));
#1353 = ( GEOMETRIC_REPRESENTATION_CONTEXT(2) 
PARAMETRIC_REPRESENTATION_CONTEXT() REPRESENTATION_CONTEXT('2D SPACE',''
  ) );
#1354 = ORIENTED_EDGE('',*,*,#588,.F.);
#1355 = ADVANCED_FACE('',(#1356),#576,.F.);
#1356 = FACE_BOUND('',#1357,.F.);
#1357 = EDGE_LOOP('',(#1358,#1359,#1382,#1403));
#1358 = ORIENTED_EDGE('',*,*,#1334,.T.);
#1359 = ORIENTED_EDGE('',*,*,#1360,.T.);
#1360 = EDGE_CURVE('',#1312,#1361,#1363,.T.);
#1361 = VERTEX_POINT('',#1362);
#1362 = CARTESIAN_POINT('',(3.666174225375,-6.350000027749,140.));
#1363 = SURFACE_CURVE('',#1364,(#1368,#1375),.PCURVE_S1.);
#1364 = LINE('',#1365,#1366);
#1365 = CARTESIAN_POINT('',(-3.666174225375,-6.350000027749,140.));
#1366 = VECTOR('',#1367,1.);
#1367 = DIRECTION('',(1.,-1.211315072744E-16,0.));
#1368 = PCURVE('',#576,#1369);
#1369 = DEFINITIONAL_REPRESENTATION('',(#1370),#1374);
#1370 = LINE('',#1371,#1372);
#1371 = CARTESIAN_POINT('',(0.,-70.));
#1372 = VECTOR('',#1373,1.);
#1373 = DIRECTION('',(1.,0.));
#1374 = ( GEOMETRIC_REPRESENTATION_CONTEXT(2) 
PARAMETRIC_REPRESENTATION_CONTEXT() REPRESENTATION_CONTEXT('2D SPACE',''
  ) );
#1375 = PCURVE('',#1175,#1376);
#1376 = DEFINITIONAL_REPRESENTATION('',(#1377),#1381);
#1377 = LINE('',#1378,#1379);
#1378 = CARTESIAN_POINT('',(-3.666174225375,-6.350000027749));
#1379 = VECTOR('',#1380,1.);
#1380 = DIRECTION('',(1.,-1.211315072744E-16));
#1381 = ( GEOMETRIC_REPRESENTATION_CONTEXT(2) 
PARAMETRIC_REPRESENTATION_CONTEXT() REPRESENTATION_CONTEXT('2D SPACE',''
  ) );
#1382 = ORIENTED_EDGE('',*,*,#1383,.F.);
#1383 = EDGE_CURVE('',#533,#1361,#1384,.T.);
#1384 = SURFACE_CURVE('',#1385,(#1389,#1396),.PCURVE_S1.);
#1385 = LINE('',#1386,#1387);
#1386 = CARTESIAN_POINT('',(3.666174225375,-6.350000027749,70.));
#1387 = VECTOR('',#1388,1.);
#1388 = DIRECTION('',(0.,0.,1.));
#1389 = PCURVE('',#576,#1390);
#1390 = DEFINITIONAL_REPRESENTATION('',(#1391),#1395);
#1391 = LINE('',#1392,#1393);
#1392 = CARTESIAN_POINT('',(7.33234845075,0.));
#1393 = VECTOR('',#1394,1.);
#1394 = DIRECTION('',(0.,-1.));
#1395 = ( GEOMETRIC_REPRESENTATION_CONTEXT(2) 
PARAMETRIC_REPRESENTATION_CONTEXT() REPRESENTATION_CONTEXT('2D SPACE',''
  ) );
#1396 = PCURVE('',#548,#1397);
#1397 = DEFINITIONAL_REPRESENTATION('',(#1398),#1402);
#1398 = LINE('',#1399,#1400);
#1399 = CARTESIAN_POINT('',(0.,0.));
#1400 = VECTOR('',#1401,1.);
#1401 = DIRECTION('',(0.,-1.));
#1402 = ( GEOMETRIC_REPRESENTATION_CONTEXT(2) 
PARAMETRIC_REPRESENTATION_CONTEXT() REPRESENTATION_CONTEXT('2D SPACE',''
  ) );
#1403 = ORIENTED_EDGE('',*,*,#560,.F.);
#1404 = ADVANCED_FACE('',(#1405),#548,.F.);
#1405 = FACE_BOUND('',#1406,.F.);
#1406 = EDGE_LOOP('',(#1407,#1408,#1429,#1430));
#1407 = ORIENTED_EDGE('',*,*,#1383,.T.);
#1408 = ORIENTED_EDGE('',*,*,#1409,.T.);
#1409 = EDGE_CURVE('',#1361,#1137,#1410,.T.);
#1410 = SURFACE_CURVE('',#1411,(#1415,#1422),.PCURVE_S1.);
#1411 = LINE('',#1412,#1413);
#1412 = CARTESIAN_POINT('',(3.666174225375,-6.350000027749,140.));
#1413 = VECTOR('',#1414,1.);
#1414 = DIRECTION('',(0.5,0.866025403784,0.));
#1415 = PCURVE('',#548,#1416);
#1416 = DEFINITIONAL_REPRESENTATION('',(#1417),#1421);
#1417 = LINE('',#1418,#1419);
#1418 = CARTESIAN_POINT('',(0.,-70.));
#1419 = VECTOR('',#1420,1.);
#1420 = DIRECTION('',(1.,0.));
#1421 = ( GEOMETRIC_REPRESENTATION_CONTEXT(2) 
PARAMETRIC_REPRESENTATION_CONTEXT() REPRESENTATION_CONTEXT('2D SPACE',''
  ) );
#1422 = PCURVE('',#1175,#1423);
#1423 = DEFINITIONAL_REPRESENTATION('',(#1424),#1428);
#1424 = LINE('',#1425,#1426);
#1425 = CARTESIAN_POINT('',(3.666174225375,-6.350000027749));
#1426 = VECTOR('',#1427,1.);
#1427 = DIRECTION('',(0.5,0.866025403784));
#1428 = ( GEOMETRIC_REPRESENTATION_CONTEXT(2) 
PARAMETRIC_REPRESENTATION_CONTEXT() REPRESENTATION_CONTEXT('2D SPACE',''
  ) );
#1429 = ORIENTED_EDGE('',*,*,#1136,.F.);
#1430 = ORIENTED_EDGE('',*,*,#532,.F.);
#1431 = ADVANCED_FACE('',(#1432,#1486,#1489),#693,.F.);
#1432 = FACE_BOUND('',#1433,.T.);
#1433 = EDGE_LOOP('',(#1434,#1435,#1458,#1485));
#1434 = ORIENTED_EDGE('',*,*,#676,.F.);
#1435 = ORIENTED_EDGE('',*,*,#1436,.T.);
#1436 = EDGE_CURVE('',#677,#1437,#1439,.T.);
#1437 = VERTEX_POINT('',#1438);
#1438 = CARTESIAN_POINT('',(17.525,0.,60.));
#1439 = SEAM_CURVE('',#1440,(#1444,#1451),.PCURVE_S1.);
#1440 = LINE('',#1441,#1442);
#1441 = CARTESIAN_POINT('',(17.525,0.,0.));
#1442 = VECTOR('',#1443,1.);
#1443 = DIRECTION('',(0.,0.,1.));
#1444 = PCURVE('',#693,#1445);
#1445 = DEFINITIONAL_REPRESENTATION('',(#1446),#1450);
#1446 = LINE('',#1447,#1448);
#1447 = CARTESIAN_POINT('',(-6.28318530718,0.));
#1448 = VECTOR('',#1449,1.);
#1449 = DIRECTION('',(-0.,-1.));
#1450 = ( GEOMETRIC_REPRESENTATION_CONTEXT(2) 
PARAMETRIC_REPRESENTATION_CONTEXT() REPRESENTATION_CONTEXT('2D SPACE',''
  ) );
#1451 = PCURVE('',#693,#1452);
#1452 = DEFINITIONAL_REPRESENTATION('',(#1453),#1457);
#1453 = LINE('',#1454,#1455);
#1454 = CARTESIAN_POINT('',(-0.,0.));
#1455 = VECTOR('',#1456,1.);
#1456 = DIRECTION('',(-0.,-1.));
#1457 = ( GEOMETRIC_REPRESENTATION_CONTEXT(2) 
PARAMETRIC_REPRESENTATION_CONTEXT() REPRESENTATION_CONTEXT('2D SPACE',''
  ) );
#1458 = ORIENTED_EDGE('',*,*,#1459,.T.);
#1459 = EDGE_CURVE('',#1437,#1437,#1460,.T.);
#1460 = SURFACE_CURVE('',#1461,(#1466,#1473),.PCURVE_S1.);
#1461 = CIRCLE('',#1462,17.525);
#1462 = AXIS2_PLACEMENT_3D('',#1463,#1464,#1465);
#1463 = CARTESIAN_POINT('',(0.,0.,60.));
#1464 = DIRECTION('',(0.,0.,1.));
#1465 = DIRECTION('',(1.,0.,-0.));
#1466 = PCURVE('',#693,#1467);
#1467 = DEFINITIONAL_REPRESENTATION('',(#1468),#1472);
#1468 = LINE('',#1469,#1470);
#1469 = CARTESIAN_POINT('',(-0.,-60.));
#1470 = VECTOR('',#1471,1.);
#1471 = DIRECTION('',(-1.,0.));
#1472 = ( GEOMETRIC_REPRESENTATION_CONTEXT(2) 
PARAMETRIC_REPRESENTATION_CONTEXT() REPRESENTATION_CONTEXT('2D SPACE',''
  ) );
#1473 = PCURVE('',#1474,#1479);
#1474 = PLANE('',#1475);
#1475 = AXIS2_PLACEMENT_3D('',#1476,#1477,#1478);
#1476 = CARTESIAN_POINT('',(0.,2.249429367154E-15,60.));
#1477 = DIRECTION('',(0.,0.,1.));
#1478 = DIRECTION('',(1.,0.,-0.));
#1479 = DEFINITIONAL_REPRESENTATION('',(#1480),#1484);
#1480 = CIRCLE('',#1481,17.525);
#1481 = AXIS2_PLACEMENT_2D('',#1482,#1483);
#1482 = CARTESIAN_POINT('',(0.,-2.249429367154E-15));
#1483 = DIRECTION('',(1.,0.));
#1484 = ( GEOMETRIC_REPRESENTATION_CONTEXT(2) 
PARAMETRIC_REPRESENTATION_CONTEXT() REPRESENTATION_CONTEXT('2D SPACE',''
  ) );
#1485 = ORIENTED_EDGE('',*,*,#1436,.F.);
#1486 = FACE_BOUND('',#1487,.T.);
#1487 = EDGE_LOOP('',(#1488));
#1488 = ORIENTED_EDGE('',*,*,#922,.T.);
#1489 = FACE_BOUND('',#1490,.T.);
#1490 = EDGE_LOOP('',(#1491));
#1491 = ORIENTED_EDGE('',*,*,#732,.F.);
#1492 = ADVANCED_FACE('',(#1493),#1175,.T.);
#1493 = FACE_BOUND('',#1494,.T.);
#1494 = EDGE_LOOP('',(#1495,#1496,#1497,#1498,#1499,#1500));
#1495 = ORIENTED_EDGE('',*,*,#1159,.T.);
#1496 = ORIENTED_EDGE('',*,*,#1213,.T.);
#1497 = ORIENTED_EDGE('',*,*,#1262,.T.);
#1498 = ORIENTED_EDGE('',*,*,#1311,.T.);
#1499 = ORIENTED_EDGE('',*,*,#1360,.T.);
#1500 = ORIENTED_EDGE('',*,*,#1409,.T.);
#1501 = ADVANCED_FACE('',(#1502),#1474,.F.);
#1502 = FACE_BOUND('',#1503,.F.);
#1503 = EDGE_LOOP('',(#1504));
#1504 = ORIENTED_EDGE('',*,*,#1459,.T.);
#1505 = ( GEOMETRIC_REPRESENTATION_CONTEXT(3) 
GLOBAL_UNCERTAINTY_ASSIGNED_CONTEXT((#1509)) 
GLOBAL_UNIT_ASSIGNED_CONTEXT((#1506,#1507,#1508)) REPRESENTATION_CONTEXT
('Context #1','3D Context with UNIT and UNCERTAINTY') );
#1506 = ( LENGTH_UNIT() NAMED_UNIT(*) SI_UNIT(.MILLI.,.METRE.) );
#1507 = ( NAMED_UNIT(*) PLANE_ANGLE_UNIT() SI_UNIT($,.RADIAN.) );
#1508 = ( NAMED_UNIT(*) SI_UNIT($,.STERADIAN.) SOLID_ANGLE_UNIT() );
#1509 = UNCERTAINTY_MEASURE_WITH_UNIT(LENGTH_MEASURE(1.E-07),#1506,
  'distance_accuracy_value','confusion accuracy');
#1510 = PRODUCT_RELATED_PRODUCT_CATEGORY('part',$,(#7));
ENDSEC;
END-ISO-10303-21;
